<svg xmlns="http://www.w3.org/2000/svg" xmlns:xlink="http://www.w3.org/1999/xlink" width="100" zoomAndPan="magnify" viewBox="0 0 75 30.000001" height="40" preserveAspectRatio="xMidYMid meet" version="1.2"><defs><clipPath id="1055680fd2"><path d="M 4 10.273438 L 13.546875 10.273438 L 13.546875 18 L 4 18 Z M 4 10.273438 "/></clipPath><clipPath id="a51185b850"><path d="M 1.210938 14 L 4 14 L 4 16 L 1.210938 16 Z M 1.210938 14 "/></clipPath></defs><g id="e2458658a0"><g clip-rule="nonzero" clip-path="url(#1055680fd2)"><path style=" stroke:none;fill-rule:nonzero;fill:#4e47ff;fill-opacity:1;" d="M 12.957031 15.113281 L 6.765625 17.539062 C 6.746094 17.546875 6.726562 17.546875 6.707031 17.546875 C 6.65625 17.546875 6.605469 17.523438 6.574219 17.484375 L 6.648438 17.515625 L 6.730469 17.316406 L 7.886719 14.566406 L 8.867188 14.851562 C 8.925781 14.867188 8.984375 14.878906 9.046875 14.878906 C 9.269531 14.878906 9.476562 14.757812 9.59375 14.566406 L 10.117188 13.695312 L 12.832031 14.925781 L 13.03125 15.019531 L 13.0625 14.949219 C 13.066406 15.019531 13.027344 15.085938 12.957031 15.113281 Z M 5.109375 13.757812 L 7.457031 14.441406 L 6.378906 17 Z M 5.148438 13.117188 L 11.144531 10.769531 C 11.164062 10.765625 11.183594 10.761719 11.203125 10.761719 C 11.242188 10.761719 11.277344 10.777344 11.308594 10.804688 C 11.304688 10.832031 11.296875 10.863281 11.277344 10.890625 L 9.824219 13.3125 L 9.207031 14.335938 C 9.171875 14.394531 9.113281 14.429688 9.046875 14.429688 C 9.027344 14.429688 9.011719 14.425781 8.992188 14.421875 L 7.847656 14.089844 L 5.128906 13.296875 C 5.097656 13.289062 5.074219 13.273438 5.050781 13.253906 C 5.054688 13.195312 5.09375 13.140625 5.148438 13.117188 Z M 12.878906 14.457031 L 10.347656 13.308594 L 11.609375 11.210938 Z M 11.875 10.664062 C 11.835938 10.566406 11.777344 10.484375 11.699219 10.417969 C 11.589844 10.324219 11.449219 10.273438 11.304688 10.273438 C 11.226562 10.273438 11.152344 10.289062 11.078125 10.316406 L 8.992188 11.132812 L 4.988281 12.703125 L 4.886719 12.742188 C 4.679688 12.824219 4.53125 13.015625 4.503906 13.234375 C 4.492188 13.335938 4.503906 13.441406 4.539062 13.535156 L 6.132812 17.605469 C 6.226562 17.84375 6.453125 17.996094 6.707031 17.996094 C 6.78125 17.996094 6.859375 17.980469 6.929688 17.953125 L 13.121094 15.53125 C 13.273438 15.46875 13.394531 15.355469 13.460938 15.203125 C 13.523438 15.054688 13.527344 14.886719 13.46875 14.734375 L 11.875 10.664062 "/></g><g clip-rule="nonzero" clip-path="url(#a51185b850)"><path style=" stroke:none;fill-rule:nonzero;fill:#4e47ff;fill-opacity:1;" d="M 3.925781 14.253906 C 3.882812 14.136719 3.75 14.082031 3.636719 14.125 L 1.402344 15 C 1.285156 15.046875 1.230469 15.175781 1.273438 15.292969 C 1.308594 15.378906 1.394531 15.433594 1.484375 15.433594 C 1.511719 15.433594 1.539062 15.429688 1.5625 15.417969 L 3.800781 14.542969 C 3.914062 14.496094 3.972656 14.367188 3.925781 14.253906 "/></g><path style=" stroke:none;fill-rule:nonzero;fill:#4e47ff;fill-opacity:1;" d="M 2.269531 16.316406 C 2.308594 16.414062 2.402344 16.476562 2.503906 16.476562 C 2.53125 16.476562 2.5625 16.46875 2.59375 16.457031 L 4.613281 15.667969 C 4.742188 15.617188 4.808594 15.46875 4.757812 15.339844 C 4.707031 15.210938 4.558594 15.148438 4.429688 15.199219 L 2.410156 15.988281 C 2.28125 16.039062 2.21875 16.1875 2.269531 16.316406 "/><path style=" stroke:none;fill-rule:nonzero;fill:#4e47ff;fill-opacity:1;" d="M 4.597656 16.578125 L 2.191406 17.519531 C 2.074219 17.5625 2.019531 17.695312 2.0625 17.808594 C 2.097656 17.898438 2.183594 17.949219 2.273438 17.949219 C 2.300781 17.949219 2.328125 17.945312 2.355469 17.933594 L 4.757812 16.992188 C 4.875 16.949219 4.929688 16.816406 4.886719 16.703125 C 4.839844 16.589844 4.710938 16.53125 4.597656 16.578125 "/><g style="fill:#000000;fill-opacity:1;"><g transform="translate(13.805403, 17.056453)"><path style="stroke:none" d="M 1.03125 0.015625 L 0.78125 0 L 0.546875 0 L 0.421875 -0.015625 L 0.390625 -0.03125 L 0.34375 -0.09375 L 0.34375 -0.15625 L 0.359375 -0.28125 L 0.359375 -0.34375 L 0.34375 -0.421875 L 0.375 -0.5 L 0.375 -0.5625 L 0.390625 -0.671875 L 0.421875 -0.765625 L 0.4375 -0.875 L 0.484375 -1.0625 L 0.484375 -1.203125 L 0.515625 -1.265625 L 0.515625 -1.328125 L 0.53125 -1.453125 L 0.578125 -1.640625 L 0.578125 -1.71875 L 0.59375 -1.765625 L 0.609375 -1.890625 L 0.625 -1.953125 L 0.640625 -2.078125 L 0.640625 -2.21875 L 0.6875 -2.359375 L 0.6875 -2.421875 L 0.703125 -2.546875 L 0.75 -2.734375 L 0.75 -2.859375 L 0.78125 -2.96875 L 0.765625 -3.015625 L 0.796875 -3.09375 L 0.8125 -3.171875 L 0.84375 -3.390625 L 0.84375 -3.453125 L 0.859375 -3.5 L 0.875 -3.5625 L 0.890625 -3.671875 L 0.890625 -3.734375 L 0.921875 -3.796875 L 0.953125 -3.890625 L 0.953125 -4.015625 L 0.96875 -4.125 L 1 -4.1875 L 1.015625 -4.3125 L 1.015625 -4.359375 L 1.03125 -4.484375 L 1.09375 -4.734375 L 1.109375 -4.78125 L 1.109375 -4.90625 L 1.171875 -5.171875 L 1.171875 -5.328125 L 1.203125 -5.4375 L 1.21875 -5.53125 L 1.265625 -5.71875 L 1.25 -5.78125 L 1.265625 -5.84375 L 1.28125 -5.9375 L 1.3125 -6.03125 L 1.3125 -6.09375 L 1.359375 -6.1875 L 1.453125 -6.203125 L 2.5 -6.203125 L 2.546875 -6.125 L 2.578125 -5.875 L 2.59375 -5.8125 L 2.609375 -5.6875 L 2.625 -5.640625 L 2.65625 -5.515625 L 2.65625 -5.359375 L 2.6875 -5.21875 L 2.703125 -5.109375 L 2.71875 -4.984375 L 2.734375 -4.921875 L 2.734375 -4.84375 L 2.765625 -4.65625 L 2.765625 -4.609375 L 2.796875 -4.484375 L 2.796875 -4.359375 L 2.828125 -4.3125 L 2.828125 -4.140625 L 2.84375 -4.015625 L 2.875 -3.890625 L 2.875 -3.84375 L 2.890625 -3.71875 L 2.9375 -3.40625 L 2.96875 -3.28125 L 2.96875 -3.234375 L 2.984375 -3.171875 L 2.984375 -3.109375 L 3 -3.0625 L 3.015625 -2.9375 L 3.046875 -2.765625 L 3.078125 -2.765625 L 3.1875 -3 L 3.21875 -3.03125 L 3.25 -3.09375 L 3.328125 -3.234375 L 3.34375 -3.296875 L 3.40625 -3.421875 L 3.46875 -3.515625 L 3.53125 -3.59375 L 3.53125 -3.640625 L 3.59375 -3.78125 L 3.640625 -3.859375 L 3.671875 -3.9375 L 3.734375 -4.0625 L 3.796875 -4.109375 L 3.828125 -4.21875 L 3.90625 -4.328125 L 3.9375 -4.390625 L 3.953125 -4.4375 L 4.046875 -4.578125 L 4.375 -5.234375 L 4.4375 -5.34375 L 4.5 -5.46875 L 4.5625 -5.5625 L 4.609375 -5.671875 L 4.65625 -5.71875 L 4.671875 -5.765625 L 4.703125 -5.796875 L 4.703125 -5.859375 L 4.734375 -5.90625 L 4.78125 -6.015625 L 4.84375 -6.109375 L 4.890625 -6.1875 L 5.109375 -6.203125 L 5.453125 -6.203125 L 5.765625 -6.1875 L 5.9375 -6.203125 L 6.015625 -6.140625 L 6.03125 -6.09375 L 6 -5.96875 L 5.984375 -5.921875 L 5.984375 -5.796875 L 5.96875 -5.765625 L 5.96875 -5.703125 L 5.9375 -5.578125 L 5.9375 -5.4375 L 5.90625 -5.3125 L 5.859375 -5.203125 L 5.859375 -5.125 L 5.84375 -5 L 5.828125 -4.953125 L 5.8125 -4.84375 L 5.828125 -4.796875 L 5.78125 -4.734375 L 5.78125 -4.578125 L 5.765625 -4.53125 L 5.71875 -4.40625 L 5.703125 -4.359375 L 5.6875 -4.234375 L 5.671875 -4.09375 L 5.640625 -4.015625 L 5.640625 -3.890625 L 5.625 -3.828125 L 5.609375 -3.78125 L 5.578125 -3.65625 L 5.5625 -3.53125 L 5.53125 -3.421875 L 5.53125 -3.375 L 5.515625 -3.3125 L 5.5 -3.203125 L 5.484375 -3.109375 L 5.46875 -2.984375 L 5.4375 -2.921875 L 5.4375 -2.859375 L 5.453125 -2.796875 L 5.4375 -2.734375 L 5.4375 -2.671875 L 5.421875 -2.625 L 5.390625 -2.5 L 5.34375 -2.4375 L 5.375 -2.375 L 5.359375 -2.234375 L 5.328125 -2.125 L 5.328125 -2.0625 L 5.3125 -1.953125 L 5.265625 -1.8125 L 5.265625 -1.75 L 5.234375 -1.625 L 5.234375 -1.5625 L 5.21875 -1.484375 L 5.203125 -1.359375 L 5.1875 -1.3125 L 5.171875 -1.1875 L 5.15625 -1.109375 L 5.125 -1 L 5.125 -0.9375 L 5.109375 -0.890625 L 5.09375 -0.765625 L 5.078125 -0.703125 L 5.078125 -0.640625 L 5.0625 -0.53125 L 5.046875 -0.453125 L 5.015625 -0.34375 L 5 -0.21875 L 4.984375 -0.109375 L 4.953125 -0.03125 L 4.828125 0.015625 L 4.734375 0.015625 L 4.46875 0 L 4.078125 0 L 3.953125 0.015625 L 3.90625 0 L 3.84375 0 L 3.78125 -0.046875 L 3.765625 -0.140625 L 3.75 -0.203125 L 3.765625 -0.25 L 3.796875 -0.375 L 3.796875 -0.4375 L 3.8125 -0.578125 L 3.84375 -0.640625 L 3.859375 -0.765625 L 3.875 -0.90625 L 3.890625 -1.03125 L 3.9375 -1.140625 L 3.9375 -1.265625 L 3.984375 -1.359375 L 4 -1.484375 L 4 -1.609375 L 4.015625 -1.71875 L 4.046875 -1.78125 L 4.0625 -1.890625 L 4.0625 -1.9375 L 4.078125 -2 L 4.109375 -2.09375 L 4.109375 -2.21875 L 4.125 -2.28125 L 4.203125 -2.625 L 4.21875 -2.78125 L 4.25 -2.90625 L 4.265625 -2.953125 L 4.28125 -3.015625 L 4.3125 -3.234375 L 4.28125 -3.234375 L 4.015625 -2.71875 L 3.8125 -2.265625 L 3.703125 -2 L 3.515625 -1.625 L 3.265625 -1.109375 L 3.203125 -1 L 3.15625 -0.90625 L 3.0625 -0.890625 L 3.015625 -0.890625 L 2.9375 -0.90625 L 2.734375 -0.890625 L 2.5625 -0.921875 L 2.484375 -0.9375 L 2.390625 -0.984375 L 2.375 -1.046875 L 2.328125 -1.203125 L 2.328125 -1.265625 L 2.296875 -1.328125 L 2.296875 -1.40625 L 2.265625 -1.53125 L 2.25 -1.671875 L 2.234375 -1.859375 L 2.21875 -1.90625 L 2.1875 -2.03125 L 2.125 -2.53125 L 2.09375 -2.71875 L 2.078125 -2.84375 L 2.078125 -2.90625 L 2.0625 -2.953125 L 2.03125 -3.359375 L 2 -3.359375 L 1.953125 -3 L 1.953125 -2.890625 L 1.90625 -2.75 L 1.875 -2.421875 L 1.875 -2.359375 L 1.859375 -2.3125 L 1.859375 -2.140625 L 1.84375 -2.078125 L 1.828125 -1.96875 L 1.8125 -1.90625 L 1.796875 -1.859375 L 1.78125 -1.734375 L 1.765625 -1.625 L 1.765625 -1.5625 L 1.734375 -1.3125 L 1.734375 -1.265625 L 1.703125 -1.15625 L 1.6875 -1.078125 L 1.6875 -1 L 1.671875 -0.859375 L 1.640625 -0.734375 L 1.640625 -0.6875 L 1.609375 -0.578125 L 1.609375 -0.34375 L 1.578125 -0.28125 L 1.5625 -0.234375 L 1.5625 -0.140625 L 1.5 -0.046875 L 1.40625 0 L 1.140625 0 L 1.09375 0.015625 Z M 1.03125 0.015625 "/></g></g><g style="fill:#4e47ff;fill-opacity:1;"><g transform="translate(19.53247, 17.056453)"><path style="stroke:none" d="M 2.140625 0.140625 L 1.90625 0.109375 L 1.796875 0.125 L 1.734375 0.109375 L 1.65625 0.109375 L 1.453125 0.046875 L 1.375 0.03125 L 1.25 0 L 1.1875 -0.03125 L 1.0625 -0.109375 L 0.90625 -0.25 L 0.78125 -0.390625 L 0.75 -0.4375 L 0.703125 -0.484375 L 0.6875 -0.53125 L 0.640625 -0.59375 L 0.5625 -0.703125 L 0.5625 -0.765625 L 0.546875 -0.828125 L 0.5 -0.96875 L 0.46875 -1.09375 L 0.453125 -1.21875 L 0.453125 -1.265625 L 0.421875 -1.4375 L 0.4375 -1.5 L 0.4375 -1.671875 L 0.46875 -1.765625 L 0.453125 -1.828125 L 0.453125 -1.890625 L 0.484375 -2.09375 L 0.515625 -2.21875 L 0.515625 -2.28125 L 0.53125 -2.40625 L 0.53125 -2.46875 L 0.5625 -2.59375 L 0.546875 -2.640625 L 0.5625 -2.75 L 0.578125 -2.8125 L 0.609375 -2.984375 L 0.640625 -3.078125 L 0.640625 -3.203125 L 0.671875 -3.296875 L 0.671875 -3.359375 L 0.703125 -3.484375 L 0.703125 -3.53125 L 0.71875 -3.59375 L 0.71875 -3.65625 L 0.765625 -3.734375 L 0.78125 -3.796875 L 0.78125 -3.921875 L 0.8125 -4.03125 L 0.828125 -4.09375 L 0.84375 -4.140625 L 0.859375 -4.265625 L 0.890625 -4.484375 L 0.9375 -4.546875 L 0.953125 -4.671875 L 1.015625 -4.78125 L 1.03125 -4.84375 L 1.078125 -4.953125 L 1.109375 -5.078125 L 1.171875 -5.1875 L 1.203125 -5.25 L 1.28125 -5.359375 L 1.296875 -5.421875 L 1.328125 -5.46875 L 1.40625 -5.59375 L 1.46875 -5.703125 L 1.53125 -5.734375 L 1.578125 -5.796875 L 1.703125 -5.921875 L 1.8125 -6 L 1.890625 -6.03125 L 1.953125 -6.078125 L 2.0625 -6.140625 L 2.15625 -6.1875 L 2.296875 -6.234375 L 2.34375 -6.234375 L 2.484375 -6.265625 L 2.5625 -6.28125 L 2.734375 -6.3125 L 2.859375 -6.3125 L 2.953125 -6.328125 L 3.125 -6.3125 L 3.171875 -6.3125 L 3.265625 -6.296875 L 3.40625 -6.28125 L 3.484375 -6.25 L 3.546875 -6.25 L 3.609375 -6.234375 L 3.734375 -6.171875 L 3.890625 -6.0625 L 3.96875 -6.015625 L 4.109375 -5.875 L 4.203125 -5.796875 L 4.25 -5.734375 L 4.28125 -5.671875 L 4.328125 -5.5625 L 4.359375 -5.515625 L 4.421875 -5.265625 L 4.4375 -5.09375 L 4.453125 -5.015625 L 4.453125 -4.96875 L 4.4375 -4.84375 L 4.4375 -4.5 L 4.40625 -4.4375 L 4.40625 -4.1875 L 4.390625 -4.0625 L 4.375 -3.921875 L 4.375 -3.78125 L 4.34375 -3.71875 L 4.328125 -3.578125 L 4.34375 -3.484375 L 4.296875 -3.390625 L 4.3125 -3.28125 L 4.265625 -3.171875 L 4.25 -3.0625 L 4.21875 -2.9375 L 4.21875 -2.828125 L 4.1875 -2.71875 L 4.15625 -2.671875 L 4.140625 -2.5 L 4.140625 -2.421875 L 4.125 -2.359375 L 4.109375 -2.234375 L 4.078125 -2.1875 L 3.984375 -1.875 L 4 -1.828125 L 3.953125 -1.71875 L 3.921875 -1.671875 L 3.921875 -1.5625 L 3.875 -1.46875 L 3.84375 -1.359375 L 3.84375 -1.296875 L 3.8125 -1.203125 L 3.78125 -1.140625 L 3.765625 -1.046875 L 3.703125 -0.9375 L 3.625 -0.765625 L 3.59375 -0.703125 L 3.515625 -0.59375 L 3.46875 -0.546875 L 3.421875 -0.484375 L 3.40625 -0.4375 L 3.203125 -0.234375 L 3.09375 -0.15625 L 3 -0.078125 L 2.953125 -0.046875 L 2.75 0.03125 L 2.6875 0.03125 L 2.4375 0.09375 L 2.34375 0.109375 Z M 2.078125 -1.0625 L 2.1875 -1.0625 L 2.3125 -1.09375 L 2.390625 -1.140625 L 2.515625 -1.21875 L 2.578125 -1.34375 L 2.625 -1.46875 L 2.65625 -1.53125 L 2.65625 -1.609375 L 2.671875 -1.734375 L 2.71875 -1.921875 L 2.734375 -2 L 2.75 -2.125 L 2.765625 -2.171875 L 2.828125 -2.421875 L 2.828125 -2.515625 L 2.859375 -2.59375 L 2.875 -2.734375 L 2.890625 -2.9375 L 2.921875 -3.015625 L 2.953125 -3.078125 L 2.96875 -3.25 L 3 -3.296875 L 2.984375 -3.453125 L 3.015625 -3.59375 L 3.03125 -3.6875 L 3.0625 -3.765625 L 3.078125 -3.828125 L 3.0625 -3.890625 L 3.078125 -4 L 3.09375 -4.078125 L 3.125 -4.203125 L 3.140625 -4.28125 L 3.140625 -4.390625 L 3.15625 -4.546875 L 3.15625 -4.671875 L 3.1875 -4.796875 L 3.140625 -4.96875 L 3.046875 -5.109375 L 2.90625 -5.171875 L 2.734375 -5.15625 L 2.671875 -5.140625 L 2.53125 -5.078125 L 2.4375 -5 L 2.375 -4.90625 L 2.34375 -4.796875 L 2.296875 -4.734375 L 2.25 -4.625 L 2.234375 -4.5625 L 2.21875 -4.484375 L 2.15625 -4.3125 L 2.15625 -4.21875 L 2.125 -4.09375 L 2.125 -4.046875 L 2.078125 -3.921875 L 2.0625 -3.796875 L 2.03125 -3.65625 L 2 -3.53125 L 1.984375 -3.390625 L 1.953125 -3.328125 L 1.921875 -3.1875 L 1.90625 -3.125 L 1.890625 -3 L 1.890625 -2.9375 L 1.875 -2.875 L 1.890625 -2.796875 L 1.859375 -2.734375 L 1.8125 -2.609375 L 1.828125 -2.546875 L 1.8125 -2.484375 L 1.8125 -2.4375 L 1.796875 -2.359375 L 1.796875 -2.296875 L 1.78125 -2.234375 L 1.78125 -2.15625 L 1.75 -2.03125 L 1.75 -1.96875 L 1.734375 -1.90625 L 1.75 -1.84375 L 1.75 -1.734375 L 1.703125 -1.640625 L 1.734375 -1.578125 L 1.734375 -1.34375 L 1.765625 -1.28125 L 1.78125 -1.234375 L 1.828125 -1.15625 L 1.875 -1.109375 L 1.953125 -1.09375 Z M 2.078125 -1.0625 "/></g></g><g style="fill:#4e47ff;fill-opacity:1;"><g transform="translate(23.828201, 17.056453)"><path style="stroke:none" d="M 1.75 0.109375 L 1.546875 0.09375 L 1.390625 0.09375 L 1.296875 0.078125 L 1.203125 0.046875 L 1.140625 0.03125 L 1 -0.03125 L 0.90625 -0.0625 L 0.8125 -0.125 L 0.703125 -0.1875 L 0.625 -0.3125 L 0.53125 -0.421875 L 0.453125 -0.546875 L 0.390625 -0.6875 L 0.375 -0.765625 L 0.3125 -0.921875 L 0.296875 -0.96875 L 0.28125 -1.09375 L 0.265625 -1.15625 L 0.25 -1.296875 L 0.25 -1.765625 L 0.265625 -1.90625 L 0.296875 -2.03125 L 0.3125 -2.171875 L 0.4375 -2.234375 L 0.65625 -2.265625 L 0.765625 -2.25 L 1.265625 -2.25 L 1.375 -2.234375 L 1.4375 -2.125 L 1.4375 -1.546875 L 1.453125 -1.34375 L 1.484375 -1.265625 L 1.546875 -1.125 L 1.625 -1.03125 L 1.75 -1.015625 L 1.828125 -1.015625 L 1.890625 -1.03125 L 2 -1.046875 L 2.03125 -1.09375 L 2.078125 -1.171875 L 2.125 -1.234375 L 2.15625 -1.34375 L 2.171875 -1.453125 L 2.171875 -1.875 L 2.140625 -2.03125 L 2.140625 -2.078125 L 2.109375 -2.21875 L 2.03125 -2.34375 L 1.96875 -2.4375 L 1.875 -2.625 L 1.859375 -2.671875 L 1.828125 -2.71875 L 1.765625 -2.765625 L 1.71875 -2.84375 L 1.625 -2.953125 L 1.578125 -3 L 1.546875 -3.0625 L 1.4375 -3.171875 L 1.34375 -3.28125 L 1.265625 -3.40625 L 1.171875 -3.5 L 1.078125 -3.578125 L 1.03125 -3.625 L 0.984375 -3.71875 L 0.9375 -3.859375 L 0.890625 -3.9375 L 0.84375 -4 L 0.8125 -4.125 L 0.765625 -4.25 L 0.765625 -4.359375 L 0.75 -4.4375 L 0.765625 -4.484375 L 0.765625 -4.75 L 0.78125 -4.921875 L 0.8125 -4.984375 L 0.8125 -5.109375 L 0.84375 -5.171875 L 0.875 -5.265625 L 0.890625 -5.34375 L 0.9375 -5.46875 L 1 -5.59375 L 1.03125 -5.640625 L 1.09375 -5.71875 L 1.125 -5.765625 L 1.171875 -5.84375 L 1.234375 -5.90625 L 1.34375 -5.984375 L 1.5 -6.109375 L 1.640625 -6.15625 L 1.734375 -6.203125 L 1.90625 -6.25 L 2.0625 -6.296875 L 2.328125 -6.296875 L 2.546875 -6.28125 L 2.609375 -6.28125 L 2.6875 -6.265625 L 2.828125 -6.25 L 2.984375 -6.203125 L 3.03125 -6.203125 L 3.078125 -6.171875 L 3.1875 -6.125 L 3.25 -6.0625 L 3.3125 -6.046875 L 3.53125 -5.828125 L 3.546875 -5.78125 L 3.609375 -5.671875 L 3.65625 -5.625 L 3.671875 -5.53125 L 3.6875 -5.46875 L 3.75 -5.25 L 3.75 -4.734375 L 3.71875 -4.484375 L 3.671875 -4.28125 L 3.578125 -4.234375 L 3.40625 -4.21875 L 2.921875 -4.21875 L 2.796875 -4.234375 L 2.671875 -4.234375 L 2.59375 -4.296875 L 2.59375 -4.40625 L 2.609375 -4.484375 L 2.625 -4.75 L 2.625 -4.96875 L 2.609375 -5.0625 L 2.59375 -5.125 L 2.5 -5.203125 L 2.421875 -5.265625 L 2.296875 -5.28125 L 2.203125 -5.25 L 2.09375 -5.203125 L 2.03125 -5.078125 L 2 -5 L 1.984375 -4.9375 L 1.953125 -4.84375 L 1.953125 -4.546875 L 2.015625 -4.375 L 2.09375 -4.25 L 2.1875 -4.0625 L 2.28125 -3.9375 L 2.40625 -3.796875 L 2.4375 -3.75 L 2.484375 -3.703125 L 2.515625 -3.625 L 2.546875 -3.59375 L 2.609375 -3.546875 L 2.6875 -3.484375 L 2.71875 -3.421875 L 2.765625 -3.40625 L 2.796875 -3.359375 L 2.875 -3.265625 L 2.921875 -3.1875 L 3.015625 -3.078125 L 3.078125 -2.9375 L 3.15625 -2.828125 L 3.171875 -2.796875 L 3.25 -2.609375 L 3.296875 -2.5 L 3.359375 -2.25 L 3.359375 -2.171875 L 3.375 -2.125 L 3.421875 -1.96875 L 3.4375 -1.90625 L 3.421875 -1.796875 L 3.421875 -1.359375 L 3.390625 -1.234375 L 3.390625 -1.046875 L 3.34375 -0.9375 L 3.328125 -0.875 L 3.3125 -0.78125 L 3.265625 -0.671875 L 3.1875 -0.515625 L 3.140625 -0.484375 L 3.09375 -0.390625 L 3.046875 -0.359375 L 2.984375 -0.28125 L 2.9375 -0.234375 L 2.859375 -0.171875 L 2.765625 -0.125 L 2.6875 -0.0625 L 2.59375 -0.03125 L 2.53125 0 L 2.40625 0.046875 L 2.328125 0.046875 L 2.21875 0.09375 L 1.90625 0.09375 L 1.859375 0.109375 Z M 1.75 0.109375 "/></g></g><g style="fill:#4e47ff;fill-opacity:1;"><g transform="translate(27.25588, 17.056453)"><path style="stroke:none" d="M 1.21875 0 L 1.15625 -0.015625 L 1.03125 -0.015625 L 0.9375 -0.0625 L 0.921875 -0.171875 L 0.9375 -0.28125 L 0.953125 -0.40625 L 0.953125 -0.453125 L 0.96875 -0.515625 L 0.96875 -0.5625 L 1 -0.6875 L 1 -0.78125 L 1.03125 -0.859375 L 1.078125 -1.046875 L 1.078125 -1.15625 L 1.09375 -1.265625 L 1.125 -1.328125 L 1.140625 -1.46875 L 1.171875 -1.578125 L 1.203125 -1.65625 L 1.203125 -1.75 L 1.21875 -1.890625 L 1.265625 -2 L 1.265625 -2.125 L 1.296875 -2.21875 L 1.3125 -2.328125 L 1.359375 -2.46875 L 1.34375 -2.578125 L 1.3125 -2.671875 L 1.3125 -2.8125 L 1.296875 -2.875 L 1.28125 -3.015625 L 1.265625 -3.140625 L 1.265625 -3.21875 L 1.234375 -3.28125 L 1.21875 -3.40625 L 1.21875 -3.453125 L 1.203125 -3.59375 L 1.171875 -3.75 L 1.15625 -3.8125 L 1.140625 -3.921875 L 1.09375 -4.03125 L 1.078125 -4.140625 L 1.078125 -4.203125 L 1.015625 -4.484375 L 1 -4.546875 L 0.984375 -4.78125 L 0.96875 -4.84375 L 0.96875 -4.953125 L 0.953125 -5.015625 L 0.9375 -5.140625 L 0.9375 -5.203125 L 0.890625 -5.328125 L 0.859375 -5.59375 L 0.84375 -5.71875 L 0.84375 -5.765625 L 0.828125 -5.890625 L 0.8125 -6 L 0.8125 -6.09375 L 0.84375 -6.171875 L 0.890625 -6.1875 L 0.953125 -6.1875 L 1.1875 -6.203125 L 1.3125 -6.1875 L 1.40625 -6.203125 L 1.46875 -6.1875 L 1.5625 -6.203125 L 1.9375 -6.203125 L 2.03125 -6.09375 L 2.0625 -6 L 2.0625 -5.796875 L 2.078125 -5.734375 L 2.078125 -5.640625 L 2.125 -5.578125 L 2.140625 -5.328125 L 2.125 -5.265625 L 2.171875 -5.078125 L 2.203125 -5 L 2.203125 -4.796875 L 2.234375 -4.703125 L 2.234375 -4.625 L 2.25 -4.515625 L 2.28125 -4.28125 L 2.296875 -4.15625 L 2.328125 -4.140625 L 2.359375 -4.1875 L 2.375 -4.25 L 2.390625 -4.28125 L 2.4375 -4.390625 L 2.484375 -4.453125 L 2.484375 -4.515625 L 2.5625 -4.609375 L 2.609375 -4.71875 L 2.65625 -4.8125 L 2.796875 -5.140625 L 2.828125 -5.203125 L 2.84375 -5.265625 L 2.921875 -5.375 L 2.953125 -5.5 L 3.03125 -5.671875 L 3.078125 -5.796875 L 3.125 -5.90625 L 3.15625 -5.96875 L 3.203125 -6.046875 L 3.296875 -6.171875 L 3.359375 -6.203125 L 3.65625 -6.21875 L 3.78125 -6.203125 L 4.15625 -6.203125 L 4.25 -6.1875 L 4.4375 -6.203125 L 4.53125 -6.140625 L 4.53125 -6.03125 L 4.5 -5.921875 L 4.484375 -5.875 L 4.40625 -5.78125 L 4.390625 -5.71875 L 4.34375 -5.609375 L 4.3125 -5.5625 L 4.296875 -5.5 L 4.25 -5.390625 L 4.203125 -5.34375 L 4.171875 -5.25 L 4.109375 -5.140625 L 4.078125 -5.078125 L 4.046875 -5.03125 L 4.03125 -4.984375 L 3.953125 -4.8125 L 3.890625 -4.75 L 3.84375 -4.640625 L 3.78125 -4.53125 L 3.765625 -4.46875 L 3.734375 -4.421875 L 3.71875 -4.375 L 3.625 -4.21875 L 3.578125 -4.109375 L 3.546875 -4.046875 L 3.53125 -3.984375 L 3.46875 -3.875 L 3.453125 -3.84375 L 3.40625 -3.78125 L 3.40625 -3.734375 L 3.3125 -3.609375 L 3.28125 -3.5625 L 3.25 -3.5 L 3.1875 -3.390625 L 3.0625 -3.140625 L 2.9375 -2.921875 L 2.890625 -2.859375 L 2.828125 -2.765625 L 2.765625 -2.65625 L 2.734375 -2.546875 L 2.703125 -2.5 L 2.6875 -2.4375 L 2.65625 -2.390625 L 2.609375 -2.34375 L 2.59375 -2.265625 L 2.59375 -2.203125 L 2.5625 -2.078125 L 2.53125 -1.984375 L 2.5 -1.796875 L 2.484375 -1.734375 L 2.484375 -1.6875 L 2.46875 -1.5625 L 2.40625 -1.3125 L 2.359375 -1.1875 L 2.359375 -1.125 L 2.328125 -1.03125 L 2.3125 -0.96875 L 2.3125 -0.921875 L 2.296875 -0.796875 L 2.25 -0.609375 L 2.21875 -0.46875 L 2.1875 -0.34375 L 2.15625 -0.1875 L 2.125 0 L 1.796875 0 L 1.734375 -0.015625 L 1.671875 0 L 1.59375 0 L 1.46875 -0.015625 L 1.40625 0 Z M 1.21875 0 "/></g></g><g style="fill:#000000;fill-opacity:1;"><g transform="translate(31.031965, 17.056453)"><path style="stroke:none" d="M 0.6875 0.015625 L 0.546875 0 L 0.484375 -0.015625 L 0.328125 0 L 0.28125 -0.046875 L 0.28125 -0.21875 L 0.296875 -0.265625 L 0.296875 -0.328125 L 0.3125 -0.453125 L 0.3125 -0.5 L 0.34375 -0.625 L 0.375 -0.765625 L 0.40625 -0.875 L 0.40625 -0.9375 L 0.4375 -1.046875 L 0.4375 -1.109375 L 0.453125 -1.15625 L 0.484375 -1.359375 L 0.515625 -1.421875 L 0.515625 -1.53125 L 0.53125 -1.59375 L 0.546875 -1.640625 L 0.578125 -1.765625 L 0.59375 -1.8125 L 0.609375 -1.921875 L 0.609375 -1.96875 L 0.640625 -2.0625 L 0.640625 -2.15625 L 0.671875 -2.203125 L 0.671875 -2.265625 L 0.6875 -2.328125 L 0.703125 -2.453125 L 0.71875 -2.640625 L 0.75 -2.703125 L 0.765625 -2.765625 L 0.765625 -2.890625 L 0.8125 -3.078125 L 0.828125 -3.125 L 0.84375 -3.25 L 0.859375 -3.328125 L 0.875 -3.453125 L 0.90625 -3.59375 L 0.9375 -3.71875 L 0.9375 -3.9375 L 0.953125 -4 L 0.984375 -4.0625 L 1 -4.171875 L 1 -4.21875 L 1.03125 -4.375 L 1.046875 -4.46875 L 1.03125 -4.5 L 1.0625 -4.609375 L 1.078125 -4.671875 L 1.078125 -4.828125 L 1.09375 -4.90625 L 1.125 -5.015625 L 1.15625 -5.109375 L 1.15625 -5.203125 L 1.171875 -5.265625 L 1.171875 -5.34375 L 1.203125 -5.40625 L 1.203125 -5.515625 L 1.21875 -5.578125 L 1.265625 -5.71875 L 1.265625 -5.78125 L 1.28125 -5.859375 L 1.296875 -5.984375 L 1.34375 -6.171875 L 1.421875 -6.203125 L 3.078125 -6.203125 L 3.203125 -6.1875 L 3.28125 -6.1875 L 3.390625 -6.171875 L 3.578125 -6.140625 L 3.71875 -6.125 L 3.78125 -6.109375 L 3.84375 -6.0625 L 3.90625 -6.03125 L 4.015625 -5.96875 L 4.109375 -5.90625 L 4.140625 -5.859375 L 4.1875 -5.78125 L 4.25 -5.71875 L 4.265625 -5.65625 L 4.328125 -5.53125 L 4.34375 -5.46875 L 4.375 -5.375 L 4.390625 -5.28125 L 4.390625 -5.21875 L 4.421875 -5.125 L 4.40625 -5.03125 L 4.421875 -4.90625 L 4.421875 -4.84375 L 4.4375 -4.734375 L 4.40625 -4.546875 L 4.390625 -4.484375 L 4.375 -4.28125 L 4.359375 -4.15625 L 4.328125 -4.109375 L 4.328125 -4.03125 L 4.296875 -3.96875 L 4.28125 -3.921875 L 4.265625 -3.859375 L 4.25 -3.734375 L 4.21875 -3.671875 L 4.171875 -3.546875 L 4.109375 -3.375 L 4.0625 -3.28125 L 4 -3.171875 L 3.921875 -3.03125 L 3.859375 -2.984375 L 3.796875 -2.875 L 3.71875 -2.8125 L 3.65625 -2.71875 L 3.609375 -2.65625 L 3.5 -2.5625 L 3.453125 -2.515625 L 3.328125 -2.453125 L 3.25 -2.421875 L 3.125 -2.375 L 2.984375 -2.328125 L 2.765625 -2.296875 L 2.640625 -2.28125 L 2.390625 -2.265625 L 2.21875 -2.28125 L 1.890625 -2.28125 L 1.890625 -2.203125 L 1.859375 -2.140625 L 1.859375 -2.015625 L 1.828125 -1.96875 L 1.828125 -1.859375 L 1.8125 -1.8125 L 1.8125 -1.75 L 1.78125 -1.625 L 1.78125 -1.578125 L 1.75 -1.453125 L 1.734375 -1.375 L 1.703125 -1.265625 L 1.6875 -1.203125 L 1.671875 -1.09375 L 1.65625 -1.03125 L 1.625 -0.96875 L 1.625 -0.890625 L 1.609375 -0.75 L 1.609375 -0.625 L 1.5625 -0.578125 L 1.5625 -0.4375 L 1.546875 -0.390625 L 1.53125 -0.328125 L 1.5 -0.25 L 1.5 -0.171875 L 1.484375 -0.109375 L 1.46875 0 L 1.40625 0.015625 Z M 2.078125 -3.40625 L 2.3125 -3.40625 L 2.40625 -3.421875 L 2.578125 -3.4375 L 2.640625 -3.46875 L 2.78125 -3.578125 L 2.875 -3.65625 L 2.9375 -3.75 L 2.984375 -3.8125 L 3.015625 -3.9375 L 3.03125 -4.015625 L 3.078125 -4.09375 L 3.109375 -4.25 L 3.140625 -4.484375 L 3.15625 -4.71875 L 3.15625 -4.875 L 3.125 -4.984375 L 3.078125 -5.0625 L 2.984375 -5.125 L 2.890625 -5.140625 L 2.65625 -5.15625 L 2.453125 -5.140625 L 2.390625 -5.125 L 2.34375 -5.015625 L 2.328125 -4.984375 L 2.328125 -4.890625 L 2.296875 -4.734375 L 2.28125 -4.671875 L 2.234375 -4.390625 L 2.1875 -4.15625 L 2.171875 -4.0625 L 2.171875 -3.984375 L 2.15625 -3.90625 L 2.125 -3.6875 L 2.125 -3.609375 L 2.09375 -3.484375 Z M 2.078125 -3.40625 "/></g></g><g style="fill:#000000;fill-opacity:1;"><g transform="translate(34.760661, 17.056453)"><path style="stroke:none" d="M 0.71875 0.015625 L 0.578125 0.015625 L 0.515625 0 L -0.125 -0.015625 L -0.203125 -0.03125 L -0.21875 -0.09375 L -0.1875 -0.21875 L -0.078125 -0.4375 L 0.015625 -0.703125 L 0.078125 -0.8125 L 0.109375 -0.90625 L 0.21875 -1.125 L 0.25 -1.234375 L 0.3125 -1.40625 L 0.34375 -1.453125 L 0.375 -1.515625 L 0.421875 -1.625 L 0.4375 -1.671875 L 0.453125 -1.734375 L 0.484375 -1.796875 L 0.515625 -1.90625 L 0.609375 -2.09375 L 0.625 -2.15625 L 0.640625 -2.234375 L 0.6875 -2.296875 L 0.75 -2.40625 L 0.765625 -2.46875 L 0.8125 -2.59375 L 0.84375 -2.71875 L 0.875 -2.765625 L 0.921875 -2.890625 L 0.953125 -2.9375 L 1.015625 -3.1875 L 1.046875 -3.265625 L 1.109375 -3.375 L 1.15625 -3.53125 L 1.203125 -3.625 L 1.234375 -3.671875 L 1.265625 -3.796875 L 1.296875 -3.859375 L 1.328125 -3.96875 L 1.34375 -4.015625 L 1.40625 -4.125 L 1.421875 -4.25 L 1.46875 -4.3125 L 1.5 -4.375 L 1.578125 -4.546875 L 1.625 -4.671875 L 1.640625 -4.71875 L 1.703125 -4.796875 L 1.734375 -4.890625 L 1.75 -4.953125 L 1.859375 -5.171875 L 1.875 -5.234375 L 1.890625 -5.28125 L 1.90625 -5.34375 L 1.96875 -5.4375 L 2.015625 -5.53125 L 2.078125 -5.703125 L 2.140625 -5.8125 L 2.21875 -5.96875 L 2.234375 -6.03125 L 2.265625 -6.09375 L 2.296875 -6.1875 L 2.859375 -6.1875 L 3.015625 -6.203125 L 3.09375 -6.203125 L 3.15625 -6.1875 L 3.390625 -6.1875 L 3.421875 -6.171875 L 3.484375 -6.125 L 3.515625 -5.75 L 3.515625 -5.5625 L 3.53125 -5.5 L 3.53125 -5.34375 L 3.546875 -5.015625 L 3.546875 -4.78125 L 3.578125 -4.609375 L 3.578125 -4.09375 L 3.59375 -3.96875 L 3.59375 -3.453125 L 3.609375 -3.296875 L 3.625 -3.203125 L 3.625 -2.75 L 3.640625 -2.6875 L 3.640625 -2.421875 L 3.65625 -2.015625 L 3.65625 -1.5 L 3.671875 -1.15625 L 3.671875 -1 L 3.6875 -0.9375 L 3.6875 -0.796875 L 3.671875 -0.671875 L 3.6875 -0.609375 L 3.6875 -0.140625 C 3.695312 -0.117188 3.703125 -0.09375 3.703125 -0.0625 C 3.703125 -0.03125 3.691406 -0.0078125 3.671875 0 C 3.648438 0.0078125 3.628906 0.0078125 3.609375 0 C 3.597656 0 3.585938 0 3.578125 0 L 3.515625 0.015625 L 3.4375 0 L 3.3125 0 L 3.125 0.015625 L 3.046875 0.015625 L 2.9375 0 L 2.875 0.015625 L 2.546875 0.015625 L 2.5 -0.015625 L 2.484375 -0.109375 L 2.484375 -0.265625 L 2.46875 -0.359375 L 2.484375 -0.4375 L 2.484375 -0.859375 L 2.46875 -0.9375 L 2.28125 -0.9375 L 2.140625 -0.953125 L 1.75 -0.96875 L 1.5 -0.96875 L 1.46875 -0.875 L 1.375 -0.6875 L 1.359375 -0.625 L 1.3125 -0.515625 L 1.234375 -0.359375 L 1.171875 -0.21875 L 1.15625 -0.125 L 1.125 -0.078125 L 1.09375 -0.015625 L 1.03125 0.015625 Z M 2.171875 -2.125 L 2.4375 -2.125 L 2.5 -2.15625 L 2.5 -2.65625 L 2.515625 -2.71875 L 2.515625 -2.875 L 2.53125 -2.9375 L 2.53125 -3.484375 L 2.546875 -3.8125 L 2.53125 -4.015625 L 2.46875 -3.984375 L 2.421875 -3.875 L 2.390625 -3.734375 L 2.3125 -3.5 L 2.28125 -3.421875 L 2.234375 -3.34375 L 2.234375 -3.28125 L 2.203125 -3.21875 L 2.171875 -3.140625 L 2.140625 -3.078125 L 2.125 -3 L 2.0625 -2.796875 L 2.0625 -2.734375 L 2.015625 -2.609375 L 1.96875 -2.546875 L 1.9375 -2.390625 L 1.90625 -2.328125 L 1.890625 -2.25 L 1.875 -2.1875 L 1.9375 -2.140625 L 2 -2.140625 L 2.09375 -2.125 Z M 2.171875 -2.125 "/></g></g><g style="fill:#4e47ff;fill-opacity:1;"><g transform="translate(38.720977, 17.056453)"><path style="stroke:none" d="M 1.21875 0.015625 L 0.90625 0.015625 L 0.78125 -0.015625 L 0.703125 -0.015625 L 0.640625 0 L 0.546875 -0.015625 L 0.421875 -0.015625 L 0.34375 -0.03125 L 0.28125 -0.09375 L 0.265625 -0.21875 L 0.3125 -0.34375 L 0.3125 -0.484375 L 0.34375 -0.546875 L 0.359375 -0.671875 L 0.359375 -0.734375 L 0.390625 -0.875 L 0.421875 -1 L 0.421875 -1.0625 L 0.453125 -1.171875 L 0.453125 -1.234375 L 0.484375 -1.390625 L 0.5 -1.484375 L 0.515625 -1.5625 L 0.546875 -1.640625 L 0.578125 -1.828125 L 0.578125 -1.890625 L 0.609375 -1.953125 L 0.609375 -2.015625 L 0.625 -2.078125 L 0.625 -2.140625 L 0.6875 -2.328125 L 0.703125 -2.46875 L 0.703125 -2.515625 L 0.71875 -2.578125 L 0.71875 -2.640625 L 0.734375 -2.6875 L 0.75 -2.8125 L 0.75 -2.9375 L 0.78125 -3.0625 L 0.78125 -3.125 L 0.8125 -3.25 L 0.84375 -3.328125 L 0.84375 -3.4375 L 0.859375 -3.546875 L 0.890625 -3.65625 L 0.9375 -3.78125 L 0.953125 -3.96875 L 0.953125 -4.09375 L 0.984375 -4.15625 L 1 -4.28125 L 1.015625 -4.328125 L 1 -4.390625 L 1.03125 -4.5 L 1.046875 -4.546875 L 1.078125 -4.671875 L 1.078125 -4.734375 L 1.109375 -4.84375 L 1.109375 -4.984375 L 1.125 -5.09375 L 1.140625 -5.140625 L 1.15625 -5.265625 L 1.1875 -5.375 L 1.203125 -5.4375 L 1.21875 -5.484375 L 1.21875 -5.59375 L 1.234375 -5.6875 L 1.28125 -5.78125 L 1.296875 -5.921875 L 1.3125 -5.96875 L 1.3125 -6.03125 L 1.375 -6.125 L 1.4375 -6.140625 L 1.5 -6.1875 L 1.5625 -6.1875 L 1.6875 -6.203125 L 1.765625 -6.1875 L 1.890625 -6.1875 L 1.953125 -6.203125 L 2.484375 -6.203125 L 2.59375 -6.1875 L 2.625 -6.09375 L 2.609375 -6.046875 L 2.609375 -5.921875 L 2.59375 -5.90625 L 2.59375 -5.75 L 2.5625 -5.71875 L 2.5625 -5.640625 L 2.546875 -5.59375 L 2.53125 -5.46875 L 2.484375 -5.390625 L 2.484375 -5.203125 L 2.46875 -5.140625 L 2.421875 -4.921875 L 2.40625 -4.8125 L 2.390625 -4.765625 L 2.375 -4.65625 L 2.359375 -4.59375 L 2.359375 -4.484375 L 2.34375 -4.4375 L 2.328125 -4.3125 L 2.296875 -4.203125 L 2.28125 -4.09375 L 2.265625 -4.046875 L 2.234375 -3.921875 L 2.21875 -3.84375 L 2.21875 -3.765625 L 2.203125 -3.703125 L 2.203125 -3.578125 L 2.171875 -3.453125 L 2.15625 -3.359375 L 2.109375 -3.09375 L 2.078125 -2.984375 L 2.046875 -2.921875 L 2.046875 -2.84375 L 2.015625 -2.734375 L 2 -2.609375 L 1.984375 -2.5 L 1.953125 -2.390625 L 1.953125 -2.3125 L 1.90625 -2.1875 L 1.90625 -2.125 L 1.890625 -2 L 1.890625 -1.828125 L 1.84375 -1.734375 L 1.859375 -1.640625 L 1.828125 -1.5 L 1.78125 -1.3125 L 1.78125 -1.25 L 1.75 -1.125 L 1.734375 -1 L 1.71875 -0.890625 L 1.71875 -0.828125 L 1.6875 -0.71875 L 1.65625 -0.515625 L 1.625 -0.40625 L 1.609375 -0.28125 L 1.578125 -0.15625 L 1.578125 -0.09375 L 1.546875 -0.015625 L 1.453125 0.015625 Z M 1.21875 0.015625 "/></g></g><g style="fill:#4e47ff;fill-opacity:1;"><g transform="translate(41.050411, 17.056453)"><path style="stroke:none" d="M 0.390625 0.015625 L 0.3125 -0.03125 L 0.28125 -0.09375 L 0.28125 -0.15625 L 0.265625 -0.203125 L 0.34375 -0.4375 L 0.34375 -0.5 L 0.359375 -0.546875 L 0.390625 -0.671875 L 0.390625 -0.796875 L 0.421875 -0.90625 L 0.421875 -0.96875 L 0.4375 -1.03125 L 0.453125 -1.140625 L 0.46875 -1.21875 L 0.46875 -1.328125 L 0.515625 -1.453125 L 0.53125 -1.5 L 0.5625 -1.5625 L 0.546875 -1.625 L 0.578125 -1.734375 L 0.609375 -1.796875 L 0.609375 -1.90625 L 0.625 -2.03125 L 0.640625 -2.078125 L 0.640625 -2.203125 L 0.671875 -2.328125 L 0.671875 -2.375 L 0.703125 -2.5 L 0.703125 -2.5625 L 0.75 -2.6875 L 0.78125 -2.953125 L 0.8125 -3.078125 L 0.8125 -3.125 L 0.875 -3.359375 L 0.890625 -3.484375 L 0.90625 -3.59375 L 0.953125 -3.703125 L 0.953125 -3.890625 L 1 -4.015625 L 1 -4.078125 L 1.015625 -4.1875 L 1.046875 -4.375 L 1.03125 -4.4375 L 1.0625 -4.515625 L 1.109375 -4.703125 L 1.09375 -4.765625 L 1.109375 -4.84375 L 1.125 -4.953125 L 1.140625 -5.046875 L 1.171875 -5.109375 L 1.171875 -5.171875 L 1.1875 -5.234375 L 1.1875 -5.28125 L 1.21875 -5.34375 L 1.234375 -5.484375 L 1.265625 -5.625 L 1.296875 -5.734375 L 1.296875 -5.90625 L 1.3125 -5.953125 L 1.359375 -6.125 L 1.390625 -6.1875 L 1.53125 -6.203125 L 1.75 -6.203125 L 2.078125 -6.1875 L 2.59375 -6.1875 L 2.625 -6.078125 L 2.609375 -6.015625 L 2.609375 -5.953125 L 2.5625 -5.734375 L 2.5625 -5.671875 L 2.546875 -5.625 L 2.484375 -5.25 L 2.40625 -4.9375 L 2.390625 -4.8125 L 2.390625 -4.75 L 2.34375 -4.625 L 2.328125 -4.5 L 2.296875 -4.4375 L 2.3125 -4.375 L 2.296875 -4.296875 L 2.234375 -4.046875 L 2.21875 -3.9375 L 2.171875 -3.875 L 2.1875 -3.796875 L 2.171875 -3.734375 L 2.171875 -3.671875 L 2.140625 -3.484375 L 2.125 -3.421875 L 2.125 -3.296875 L 2.109375 -3.234375 L 2.078125 -3.09375 L 2.078125 -3.03125 L 2.03125 -2.890625 L 2.03125 -2.765625 L 2 -2.640625 L 2 -2.5625 L 1.984375 -2.5 L 1.953125 -2.359375 L 1.953125 -2.296875 L 1.9375 -2.234375 L 1.921875 -2.109375 L 1.890625 -2 L 1.875 -1.875 L 1.859375 -1.796875 L 1.859375 -1.640625 L 1.84375 -1.59375 L 1.828125 -1.53125 L 1.796875 -1.34375 L 1.796875 -1.265625 L 1.84375 -1.21875 L 1.9375 -1.21875 L 2.015625 -1.203125 L 2.46875 -1.203125 L 2.671875 -1.21875 L 2.890625 -1.21875 L 2.953125 -1.1875 L 2.9375 -1.046875 L 2.921875 -1 L 2.9375 -0.9375 L 2.90625 -0.859375 L 2.859375 -0.546875 L 2.828125 -0.484375 L 2.828125 -0.375 L 2.8125 -0.234375 L 2.765625 -0.09375 L 2.703125 -0.03125 L 2.53125 -0.03125 L 2.421875 -0.015625 L 2.21875 0.015625 L 2.0625 0 L 1.9375 0.015625 L 1.8125 -0.015625 L 1.625 0 L 0.90625 0 L 0.8125 0.015625 L 0.5625 0.015625 L 0.5 0 Z M 0.390625 0.015625 "/></g></g><g style="fill:#000000;fill-opacity:1;"><g transform="translate(44.175867, 17.056453)"><path style="stroke:none" d="M 1.21875 0.015625 L 0.90625 0.015625 L 0.78125 -0.015625 L 0.703125 -0.015625 L 0.640625 0 L 0.546875 -0.015625 L 0.421875 -0.015625 L 0.34375 -0.03125 L 0.28125 -0.09375 L 0.265625 -0.21875 L 0.3125 -0.34375 L 0.3125 -0.484375 L 0.34375 -0.546875 L 0.359375 -0.671875 L 0.359375 -0.734375 L 0.390625 -0.875 L 0.421875 -1 L 0.421875 -1.0625 L 0.453125 -1.171875 L 0.453125 -1.234375 L 0.484375 -1.390625 L 0.5 -1.484375 L 0.515625 -1.5625 L 0.546875 -1.640625 L 0.578125 -1.828125 L 0.578125 -1.890625 L 0.609375 -1.953125 L 0.609375 -2.015625 L 0.625 -2.078125 L 0.625 -2.140625 L 0.6875 -2.328125 L 0.703125 -2.46875 L 0.703125 -2.515625 L 0.71875 -2.578125 L 0.71875 -2.640625 L 0.734375 -2.6875 L 0.75 -2.8125 L 0.75 -2.9375 L 0.78125 -3.0625 L 0.78125 -3.125 L 0.8125 -3.25 L 0.84375 -3.328125 L 0.84375 -3.4375 L 0.859375 -3.546875 L 0.890625 -3.65625 L 0.9375 -3.78125 L 0.953125 -3.96875 L 0.953125 -4.09375 L 0.984375 -4.15625 L 1 -4.28125 L 1.015625 -4.328125 L 1 -4.390625 L 1.03125 -4.5 L 1.046875 -4.546875 L 1.078125 -4.671875 L 1.078125 -4.734375 L 1.109375 -4.84375 L 1.109375 -4.984375 L 1.125 -5.09375 L 1.140625 -5.140625 L 1.15625 -5.265625 L 1.1875 -5.375 L 1.203125 -5.4375 L 1.21875 -5.484375 L 1.21875 -5.59375 L 1.234375 -5.6875 L 1.28125 -5.78125 L 1.296875 -5.921875 L 1.3125 -5.96875 L 1.3125 -6.03125 L 1.375 -6.125 L 1.4375 -6.140625 L 1.5 -6.1875 L 1.5625 -6.1875 L 1.6875 -6.203125 L 1.765625 -6.1875 L 1.890625 -6.1875 L 1.953125 -6.203125 L 2.484375 -6.203125 L 2.59375 -6.1875 L 2.625 -6.09375 L 2.609375 -6.046875 L 2.609375 -5.921875 L 2.59375 -5.90625 L 2.59375 -5.75 L 2.5625 -5.71875 L 2.5625 -5.640625 L 2.546875 -5.59375 L 2.53125 -5.46875 L 2.484375 -5.390625 L 2.484375 -5.203125 L 2.46875 -5.140625 L 2.421875 -4.921875 L 2.40625 -4.8125 L 2.390625 -4.765625 L 2.375 -4.65625 L 2.359375 -4.59375 L 2.359375 -4.484375 L 2.34375 -4.4375 L 2.328125 -4.3125 L 2.296875 -4.203125 L 2.28125 -4.09375 L 2.265625 -4.046875 L 2.234375 -3.921875 L 2.21875 -3.84375 L 2.21875 -3.765625 L 2.203125 -3.703125 L 2.203125 -3.578125 L 2.171875 -3.453125 L 2.15625 -3.359375 L 2.109375 -3.09375 L 2.078125 -2.984375 L 2.046875 -2.921875 L 2.046875 -2.84375 L 2.015625 -2.734375 L 2 -2.609375 L 1.984375 -2.5 L 1.953125 -2.390625 L 1.953125 -2.3125 L 1.90625 -2.1875 L 1.90625 -2.125 L 1.890625 -2 L 1.890625 -1.828125 L 1.84375 -1.734375 L 1.859375 -1.640625 L 1.828125 -1.5 L 1.78125 -1.3125 L 1.78125 -1.25 L 1.75 -1.125 L 1.734375 -1 L 1.71875 -0.890625 L 1.71875 -0.828125 L 1.6875 -0.71875 L 1.65625 -0.515625 L 1.625 -0.40625 L 1.609375 -0.28125 L 1.578125 -0.15625 L 1.578125 -0.09375 L 1.546875 -0.015625 L 1.453125 0.015625 Z M 1.21875 0.015625 "/></g></g><g style="fill:#000000;fill-opacity:1;"><g transform="translate(46.5053, 17.056453)"><path style="stroke:none" d="M 2.140625 0.140625 L 1.90625 0.109375 L 1.796875 0.125 L 1.734375 0.109375 L 1.65625 0.109375 L 1.453125 0.046875 L 1.375 0.03125 L 1.25 0 L 1.1875 -0.03125 L 1.0625 -0.109375 L 0.90625 -0.25 L 0.78125 -0.390625 L 0.75 -0.4375 L 0.703125 -0.484375 L 0.6875 -0.53125 L 0.640625 -0.59375 L 0.5625 -0.703125 L 0.5625 -0.765625 L 0.546875 -0.828125 L 0.5 -0.96875 L 0.46875 -1.09375 L 0.453125 -1.21875 L 0.453125 -1.265625 L 0.421875 -1.4375 L 0.4375 -1.5 L 0.4375 -1.671875 L 0.46875 -1.765625 L 0.453125 -1.828125 L 0.453125 -1.890625 L 0.484375 -2.09375 L 0.515625 -2.21875 L 0.515625 -2.28125 L 0.53125 -2.40625 L 0.53125 -2.46875 L 0.5625 -2.59375 L 0.546875 -2.640625 L 0.5625 -2.75 L 0.578125 -2.8125 L 0.609375 -2.984375 L 0.640625 -3.078125 L 0.640625 -3.203125 L 0.671875 -3.296875 L 0.671875 -3.359375 L 0.703125 -3.484375 L 0.703125 -3.53125 L 0.71875 -3.59375 L 0.71875 -3.65625 L 0.765625 -3.734375 L 0.78125 -3.796875 L 0.78125 -3.921875 L 0.8125 -4.03125 L 0.828125 -4.09375 L 0.84375 -4.140625 L 0.859375 -4.265625 L 0.890625 -4.484375 L 0.9375 -4.546875 L 0.953125 -4.671875 L 1.015625 -4.78125 L 1.03125 -4.84375 L 1.078125 -4.953125 L 1.109375 -5.078125 L 1.171875 -5.1875 L 1.203125 -5.25 L 1.28125 -5.359375 L 1.296875 -5.421875 L 1.328125 -5.46875 L 1.40625 -5.59375 L 1.46875 -5.703125 L 1.53125 -5.734375 L 1.578125 -5.796875 L 1.703125 -5.921875 L 1.8125 -6 L 1.890625 -6.03125 L 1.953125 -6.078125 L 2.0625 -6.140625 L 2.15625 -6.1875 L 2.296875 -6.234375 L 2.34375 -6.234375 L 2.484375 -6.265625 L 2.5625 -6.28125 L 2.734375 -6.3125 L 2.859375 -6.3125 L 2.953125 -6.328125 L 3.125 -6.3125 L 3.171875 -6.3125 L 3.265625 -6.296875 L 3.40625 -6.28125 L 3.484375 -6.25 L 3.546875 -6.25 L 3.609375 -6.234375 L 3.734375 -6.171875 L 3.890625 -6.0625 L 3.96875 -6.015625 L 4.109375 -5.875 L 4.203125 -5.796875 L 4.25 -5.734375 L 4.28125 -5.671875 L 4.328125 -5.5625 L 4.359375 -5.515625 L 4.421875 -5.265625 L 4.4375 -5.09375 L 4.453125 -5.015625 L 4.453125 -4.96875 L 4.4375 -4.84375 L 4.4375 -4.5 L 4.40625 -4.4375 L 4.40625 -4.1875 L 4.390625 -4.0625 L 4.375 -3.921875 L 4.375 -3.78125 L 4.34375 -3.71875 L 4.328125 -3.578125 L 4.34375 -3.484375 L 4.296875 -3.390625 L 4.3125 -3.28125 L 4.265625 -3.171875 L 4.25 -3.0625 L 4.21875 -2.9375 L 4.21875 -2.828125 L 4.1875 -2.71875 L 4.15625 -2.671875 L 4.140625 -2.5 L 4.140625 -2.421875 L 4.125 -2.359375 L 4.109375 -2.234375 L 4.078125 -2.1875 L 3.984375 -1.875 L 4 -1.828125 L 3.953125 -1.71875 L 3.921875 -1.671875 L 3.921875 -1.5625 L 3.875 -1.46875 L 3.84375 -1.359375 L 3.84375 -1.296875 L 3.8125 -1.203125 L 3.78125 -1.140625 L 3.765625 -1.046875 L 3.703125 -0.9375 L 3.625 -0.765625 L 3.59375 -0.703125 L 3.515625 -0.59375 L 3.46875 -0.546875 L 3.421875 -0.484375 L 3.40625 -0.4375 L 3.203125 -0.234375 L 3.09375 -0.15625 L 3 -0.078125 L 2.953125 -0.046875 L 2.75 0.03125 L 2.6875 0.03125 L 2.4375 0.09375 L 2.34375 0.109375 Z M 2.078125 -1.0625 L 2.1875 -1.0625 L 2.3125 -1.09375 L 2.390625 -1.140625 L 2.515625 -1.21875 L 2.578125 -1.34375 L 2.625 -1.46875 L 2.65625 -1.53125 L 2.65625 -1.609375 L 2.671875 -1.734375 L 2.71875 -1.921875 L 2.734375 -2 L 2.75 -2.125 L 2.765625 -2.171875 L 2.828125 -2.421875 L 2.828125 -2.515625 L 2.859375 -2.59375 L 2.875 -2.734375 L 2.890625 -2.9375 L 2.921875 -3.015625 L 2.953125 -3.078125 L 2.96875 -3.25 L 3 -3.296875 L 2.984375 -3.453125 L 3.015625 -3.59375 L 3.03125 -3.6875 L 3.0625 -3.765625 L 3.078125 -3.828125 L 3.0625 -3.890625 L 3.078125 -4 L 3.09375 -4.078125 L 3.125 -4.203125 L 3.140625 -4.28125 L 3.140625 -4.390625 L 3.15625 -4.546875 L 3.15625 -4.671875 L 3.1875 -4.796875 L 3.140625 -4.96875 L 3.046875 -5.109375 L 2.90625 -5.171875 L 2.734375 -5.15625 L 2.671875 -5.140625 L 2.53125 -5.078125 L 2.4375 -5 L 2.375 -4.90625 L 2.34375 -4.796875 L 2.296875 -4.734375 L 2.25 -4.625 L 2.234375 -4.5625 L 2.21875 -4.484375 L 2.15625 -4.3125 L 2.15625 -4.21875 L 2.125 -4.09375 L 2.125 -4.046875 L 2.078125 -3.921875 L 2.0625 -3.796875 L 2.03125 -3.65625 L 2 -3.53125 L 1.984375 -3.390625 L 1.953125 -3.328125 L 1.921875 -3.1875 L 1.90625 -3.125 L 1.890625 -3 L 1.890625 -2.9375 L 1.875 -2.875 L 1.890625 -2.796875 L 1.859375 -2.734375 L 1.8125 -2.609375 L 1.828125 -2.546875 L 1.8125 -2.484375 L 1.8125 -2.4375 L 1.796875 -2.359375 L 1.796875 -2.296875 L 1.78125 -2.234375 L 1.78125 -2.15625 L 1.75 -2.03125 L 1.75 -1.96875 L 1.734375 -1.90625 L 1.75 -1.84375 L 1.75 -1.734375 L 1.703125 -1.640625 L 1.734375 -1.578125 L 1.734375 -1.34375 L 1.765625 -1.28125 L 1.78125 -1.234375 L 1.828125 -1.15625 L 1.875 -1.109375 L 1.953125 -1.09375 Z M 2.078125 -1.0625 "/></g></g><g style="fill:#000000;fill-opacity:1;"><g transform="translate(50.64152, 17.056453)"><path style="stroke:none" d="M 1.09375 0.03125 L 1.015625 0 L 0.953125 0 L 0.875 -0.078125 L 0.890625 -0.203125 L 0.90625 -0.390625 L 0.96875 -0.578125 L 0.984375 -0.640625 L 1 -0.765625 L 1.015625 -0.828125 L 1.015625 -1.015625 L 1.0625 -1.140625 L 1.078125 -1.203125 L 1.0625 -1.265625 L 1.109375 -1.453125 L 1.109375 -1.53125 L 1.140625 -1.625 L 1.15625 -1.765625 L 1.1875 -1.890625 L 1.203125 -2 L 1.21875 -2.0625 L 1.234375 -2.171875 L 1.28125 -2.265625 L 1.265625 -2.359375 L 1.265625 -2.421875 L 1.28125 -2.484375 L 1.328125 -2.609375 L 1.375 -2.796875 L 1.359375 -2.859375 L 1.40625 -2.96875 L 1.421875 -3.015625 L 1.421875 -3.140625 L 1.453125 -3.234375 L 1.453125 -3.3125 L 1.46875 -3.375 L 1.5 -3.421875 L 1.5 -3.484375 L 1.53125 -3.546875 L 1.546875 -3.671875 L 1.546875 -3.734375 L 1.578125 -3.84375 L 1.578125 -3.921875 L 1.609375 -3.96875 L 1.609375 -4.109375 L 1.625 -4.15625 L 1.671875 -4.3125 L 1.6875 -4.359375 L 1.6875 -4.53125 L 1.71875 -4.640625 L 1.734375 -4.703125 L 1.765625 -4.984375 L 0.859375 -4.984375 L 0.78125 -5.015625 L 0.75 -5.09375 L 0.765625 -5.203125 L 0.796875 -5.265625 L 0.796875 -5.34375 L 0.78125 -5.40625 L 0.828125 -5.53125 L 0.84375 -5.578125 L 0.84375 -5.703125 L 0.890625 -5.828125 L 0.90625 -5.875 L 0.90625 -6 L 0.921875 -6.046875 L 0.96875 -6.140625 L 1.046875 -6.203125 L 1.109375 -6.21875 L 1.34375 -6.21875 L 1.375 -6.203125 L 1.4375 -6.203125 L 1.5 -6.21875 L 2.15625 -6.21875 L 2.21875 -6.203125 L 2.421875 -6.203125 L 2.984375 -6.21875 L 3.125 -6.203125 L 3.296875 -6.21875 L 3.390625 -6.203125 L 4.0625 -6.203125 L 4.140625 -6.1875 L 4.15625 -6.109375 L 4.15625 -6.0625 L 4.140625 -6 L 4.125 -5.921875 L 4.125 -5.8125 L 4.109375 -5.75 L 4.109375 -5.703125 L 4.078125 -5.59375 L 4.0625 -5.53125 L 4.0625 -5.46875 L 4.046875 -5.375 L 4 -5.1875 L 3.984375 -5.0625 L 3.953125 -4.984375 L 3.0625 -4.984375 L 3.03125 -4.921875 L 3.046875 -4.859375 L 3.015625 -4.796875 L 3.015625 -4.75 L 3 -4.703125 L 2.984375 -4.578125 L 2.984375 -4.515625 L 2.9375 -4.359375 L 2.90625 -4.28125 L 2.921875 -4.25 L 2.875 -4.125 L 2.84375 -4 L 2.84375 -3.953125 L 2.828125 -3.84375 L 2.828125 -3.734375 L 2.78125 -3.625 L 2.765625 -3.484375 L 2.71875 -3.296875 L 2.6875 -3.25 L 2.6875 -3.078125 L 2.65625 -2.96875 L 2.625 -2.90625 L 2.609375 -2.78125 L 2.59375 -2.734375 L 2.59375 -2.671875 L 2.5625 -2.546875 L 2.546875 -2.421875 L 2.53125 -2.34375 L 2.53125 -2.25 L 2.515625 -2.203125 L 2.484375 -2.078125 L 2.453125 -1.96875 L 2.4375 -1.90625 L 2.4375 -1.796875 L 2.421875 -1.671875 L 2.390625 -1.53125 L 2.359375 -1.421875 L 2.34375 -1.359375 L 2.328125 -1.234375 L 2.234375 -0.859375 L 2.234375 -0.78125 L 2.203125 -0.59375 L 2.140625 -0.34375 L 2.125 -0.21875 L 2.09375 -0.09375 L 2.078125 -0.046875 L 1.96875 0 L 1.203125 0 Z M 1.09375 0.03125 "/></g></g></g></svg>