<svg xmlns="http://www.w3.org/2000/svg" xmlns:xlink="http://www.w3.org/1999/xlink" width="100" zoomAndPan="magnify" viewBox="0 0 75 30.000001" height="40" preserveAspectRatio="xMidYMid meet" version="1.2"><defs><clipPath id="80347591e1"><path d="M 16 10.273438 L 25.539062 10.273438 L 25.539062 18 L 16 18 Z M 16 10.273438 "/></clipPath><clipPath id="128497326e"><path d="M 13.199219 14 L 16 14 L 16 16 L 13.199219 16 Z M 13.199219 14 "/></clipPath></defs><g id="101fd4e579"><g clip-rule="nonzero" clip-path="url(#80347591e1)"><path style=" stroke:none;fill-rule:nonzero;fill:#4e47ff;fill-opacity:1;" d="M 24.949219 15.113281 L 18.757812 17.539062 C 18.738281 17.546875 18.714844 17.546875 18.695312 17.546875 C 18.644531 17.546875 18.597656 17.523438 18.566406 17.484375 L 18.636719 17.515625 L 18.722656 17.316406 L 19.878906 14.566406 L 20.859375 14.851562 C 20.914062 14.867188 20.976562 14.878906 21.035156 14.878906 C 21.257812 14.878906 21.46875 14.757812 21.582031 14.566406 L 22.109375 13.695312 L 24.824219 14.925781 L 25.019531 15.019531 L 25.050781 14.949219 C 25.054688 15.019531 25.015625 15.085938 24.949219 15.113281 Z M 17.097656 13.757812 L 19.445312 14.441406 L 18.367188 17 Z M 17.140625 13.117188 L 23.132812 10.769531 C 23.152344 10.765625 23.171875 10.761719 23.191406 10.761719 C 23.230469 10.761719 23.269531 10.777344 23.296875 10.804688 C 23.296875 10.832031 23.285156 10.863281 23.269531 10.890625 L 21.8125 13.3125 L 21.199219 14.335938 C 21.164062 14.394531 21.101562 14.429688 21.035156 14.429688 C 21.019531 14.429688 21 14.425781 20.984375 14.421875 L 19.835938 14.089844 L 17.121094 13.296875 C 17.089844 13.289062 17.0625 13.273438 17.042969 13.253906 C 17.046875 13.195312 17.082031 13.140625 17.140625 13.117188 Z M 24.871094 14.457031 L 22.339844 13.308594 L 23.597656 11.210938 Z M 23.863281 10.664062 C 23.828125 10.566406 23.765625 10.484375 23.6875 10.417969 C 23.578125 10.324219 23.441406 10.273438 23.292969 10.273438 C 23.21875 10.273438 23.140625 10.289062 23.070312 10.316406 L 20.984375 11.132812 L 16.976562 12.703125 L 16.878906 12.742188 C 16.667969 12.824219 16.519531 13.015625 16.496094 13.234375 C 16.480469 13.335938 16.492188 13.441406 16.53125 13.535156 L 18.125 17.605469 C 18.21875 17.84375 18.441406 17.996094 18.695312 17.996094 C 18.773438 17.996094 18.847656 17.980469 18.921875 17.953125 L 25.109375 15.53125 C 25.265625 15.46875 25.382812 15.355469 25.449219 15.203125 C 25.515625 15.054688 25.519531 14.886719 25.457031 14.734375 L 23.863281 10.664062 "/></g><g clip-rule="nonzero" clip-path="url(#128497326e)"><path style=" stroke:none;fill-rule:nonzero;fill:#4e47ff;fill-opacity:1;" d="M 15.917969 14.253906 C 15.871094 14.136719 15.742188 14.082031 15.628906 14.125 L 13.390625 15 C 13.277344 15.046875 13.21875 15.175781 13.265625 15.292969 C 13.300781 15.378906 13.382812 15.433594 13.472656 15.433594 C 13.5 15.433594 13.527344 15.429688 13.554688 15.417969 L 15.789062 14.542969 C 15.90625 14.496094 15.960938 14.367188 15.917969 14.253906 "/></g><path style=" stroke:none;fill-rule:nonzero;fill:#4e47ff;fill-opacity:1;" d="M 14.257812 16.316406 C 14.296875 16.414062 14.390625 16.476562 14.492188 16.476562 C 14.523438 16.476562 14.554688 16.46875 14.585938 16.457031 L 16.605469 15.667969 C 16.734375 15.617188 16.796875 15.46875 16.746094 15.339844 C 16.695312 15.210938 16.550781 15.148438 16.417969 15.199219 L 14.402344 15.988281 C 14.269531 16.039062 14.207031 16.1875 14.257812 16.316406 "/><path style=" stroke:none;fill-rule:nonzero;fill:#4e47ff;fill-opacity:1;" d="M 16.585938 16.578125 L 14.179688 17.519531 C 14.066406 17.5625 14.007812 17.695312 14.054688 17.808594 C 14.089844 17.898438 14.171875 17.949219 14.261719 17.949219 C 14.289062 17.949219 14.316406 17.945312 14.34375 17.933594 L 16.75 16.992188 C 16.863281 16.949219 16.921875 16.816406 16.875 16.703125 C 16.832031 16.589844 16.703125 16.53125 16.585938 16.578125 "/><g style="fill:#000000;fill-opacity:1;"><g transform="translate(25.795652, 17.056453)"><path style="stroke:none" d="M 1.03125 0.015625 L 0.78125 0 L 0.546875 0 L 0.421875 -0.015625 L 0.390625 -0.03125 L 0.34375 -0.09375 L 0.34375 -0.15625 L 0.359375 -0.28125 L 0.359375 -0.34375 L 0.34375 -0.421875 L 0.375 -0.5 L 0.375 -0.5625 L 0.390625 -0.671875 L 0.421875 -0.765625 L 0.4375 -0.875 L 0.484375 -1.0625 L 0.484375 -1.203125 L 0.515625 -1.265625 L 0.515625 -1.328125 L 0.53125 -1.453125 L 0.578125 -1.640625 L 0.578125 -1.71875 L 0.59375 -1.765625 L 0.609375 -1.890625 L 0.625 -1.953125 L 0.640625 -2.078125 L 0.640625 -2.21875 L 0.6875 -2.359375 L 0.6875 -2.421875 L 0.703125 -2.546875 L 0.75 -2.734375 L 0.75 -2.859375 L 0.78125 -2.96875 L 0.765625 -3.015625 L 0.796875 -3.09375 L 0.8125 -3.171875 L 0.84375 -3.390625 L 0.84375 -3.453125 L 0.859375 -3.5 L 0.875 -3.5625 L 0.890625 -3.671875 L 0.890625 -3.734375 L 0.921875 -3.796875 L 0.953125 -3.890625 L 0.953125 -4.015625 L 0.96875 -4.125 L 1 -4.1875 L 1.015625 -4.3125 L 1.015625 -4.359375 L 1.03125 -4.484375 L 1.09375 -4.734375 L 1.109375 -4.78125 L 1.109375 -4.90625 L 1.171875 -5.171875 L 1.171875 -5.328125 L 1.203125 -5.4375 L 1.21875 -5.53125 L 1.265625 -5.71875 L 1.25 -5.78125 L 1.265625 -5.84375 L 1.28125 -5.9375 L 1.3125 -6.03125 L 1.3125 -6.09375 L 1.359375 -6.1875 L 1.453125 -6.203125 L 2.5 -6.203125 L 2.546875 -6.125 L 2.578125 -5.875 L 2.59375 -5.8125 L 2.609375 -5.6875 L 2.625 -5.640625 L 2.65625 -5.515625 L 2.65625 -5.359375 L 2.6875 -5.21875 L 2.703125 -5.109375 L 2.71875 -4.984375 L 2.734375 -4.921875 L 2.734375 -4.84375 L 2.765625 -4.65625 L 2.765625 -4.609375 L 2.796875 -4.484375 L 2.796875 -4.359375 L 2.828125 -4.3125 L 2.828125 -4.140625 L 2.84375 -4.015625 L 2.875 -3.890625 L 2.875 -3.84375 L 2.890625 -3.71875 L 2.9375 -3.40625 L 2.96875 -3.28125 L 2.96875 -3.234375 L 2.984375 -3.171875 L 2.984375 -3.109375 L 3 -3.0625 L 3.015625 -2.9375 L 3.046875 -2.765625 L 3.078125 -2.765625 L 3.1875 -3 L 3.21875 -3.03125 L 3.25 -3.09375 L 3.328125 -3.234375 L 3.34375 -3.296875 L 3.40625 -3.421875 L 3.46875 -3.515625 L 3.53125 -3.59375 L 3.53125 -3.640625 L 3.59375 -3.78125 L 3.640625 -3.859375 L 3.671875 -3.9375 L 3.734375 -4.0625 L 3.796875 -4.109375 L 3.828125 -4.21875 L 3.90625 -4.328125 L 3.9375 -4.390625 L 3.953125 -4.4375 L 4.046875 -4.578125 L 4.375 -5.234375 L 4.4375 -5.34375 L 4.5 -5.46875 L 4.5625 -5.5625 L 4.609375 -5.671875 L 4.65625 -5.71875 L 4.671875 -5.765625 L 4.703125 -5.796875 L 4.703125 -5.859375 L 4.734375 -5.90625 L 4.78125 -6.015625 L 4.84375 -6.109375 L 4.890625 -6.1875 L 5.109375 -6.203125 L 5.453125 -6.203125 L 5.765625 -6.1875 L 5.9375 -6.203125 L 6.015625 -6.140625 L 6.03125 -6.09375 L 6 -5.96875 L 5.984375 -5.921875 L 5.984375 -5.796875 L 5.96875 -5.765625 L 5.96875 -5.703125 L 5.9375 -5.578125 L 5.9375 -5.4375 L 5.90625 -5.3125 L 5.859375 -5.203125 L 5.859375 -5.125 L 5.84375 -5 L 5.828125 -4.953125 L 5.8125 -4.84375 L 5.828125 -4.796875 L 5.78125 -4.734375 L 5.78125 -4.578125 L 5.765625 -4.53125 L 5.71875 -4.40625 L 5.703125 -4.359375 L 5.6875 -4.234375 L 5.671875 -4.09375 L 5.640625 -4.015625 L 5.640625 -3.890625 L 5.625 -3.828125 L 5.609375 -3.78125 L 5.578125 -3.65625 L 5.5625 -3.53125 L 5.53125 -3.421875 L 5.53125 -3.375 L 5.515625 -3.3125 L 5.5 -3.203125 L 5.484375 -3.109375 L 5.46875 -2.984375 L 5.4375 -2.921875 L 5.4375 -2.859375 L 5.453125 -2.796875 L 5.4375 -2.734375 L 5.4375 -2.671875 L 5.421875 -2.625 L 5.390625 -2.5 L 5.34375 -2.4375 L 5.375 -2.375 L 5.359375 -2.234375 L 5.328125 -2.125 L 5.328125 -2.0625 L 5.3125 -1.953125 L 5.265625 -1.8125 L 5.265625 -1.75 L 5.234375 -1.625 L 5.234375 -1.5625 L 5.21875 -1.484375 L 5.203125 -1.359375 L 5.1875 -1.3125 L 5.171875 -1.1875 L 5.15625 -1.109375 L 5.125 -1 L 5.125 -0.9375 L 5.109375 -0.890625 L 5.09375 -0.765625 L 5.078125 -0.703125 L 5.078125 -0.640625 L 5.0625 -0.53125 L 5.046875 -0.453125 L 5.015625 -0.34375 L 5 -0.21875 L 4.984375 -0.109375 L 4.953125 -0.03125 L 4.828125 0.015625 L 4.734375 0.015625 L 4.46875 0 L 4.078125 0 L 3.953125 0.015625 L 3.90625 0 L 3.84375 0 L 3.78125 -0.046875 L 3.765625 -0.140625 L 3.75 -0.203125 L 3.765625 -0.25 L 3.796875 -0.375 L 3.796875 -0.4375 L 3.8125 -0.578125 L 3.84375 -0.640625 L 3.859375 -0.765625 L 3.875 -0.90625 L 3.890625 -1.03125 L 3.9375 -1.140625 L 3.9375 -1.265625 L 3.984375 -1.359375 L 4 -1.484375 L 4 -1.609375 L 4.015625 -1.71875 L 4.046875 -1.78125 L 4.0625 -1.890625 L 4.0625 -1.9375 L 4.078125 -2 L 4.109375 -2.09375 L 4.109375 -2.21875 L 4.125 -2.28125 L 4.203125 -2.625 L 4.21875 -2.78125 L 4.25 -2.90625 L 4.265625 -2.953125 L 4.28125 -3.015625 L 4.3125 -3.234375 L 4.28125 -3.234375 L 4.015625 -2.71875 L 3.8125 -2.265625 L 3.703125 -2 L 3.515625 -1.625 L 3.265625 -1.109375 L 3.203125 -1 L 3.15625 -0.90625 L 3.0625 -0.890625 L 3.015625 -0.890625 L 2.9375 -0.90625 L 2.734375 -0.890625 L 2.5625 -0.921875 L 2.484375 -0.9375 L 2.390625 -0.984375 L 2.375 -1.046875 L 2.328125 -1.203125 L 2.328125 -1.265625 L 2.296875 -1.328125 L 2.296875 -1.40625 L 2.265625 -1.53125 L 2.25 -1.671875 L 2.234375 -1.859375 L 2.21875 -1.90625 L 2.1875 -2.03125 L 2.125 -2.53125 L 2.09375 -2.71875 L 2.078125 -2.84375 L 2.078125 -2.90625 L 2.0625 -2.953125 L 2.03125 -3.359375 L 2 -3.359375 L 1.953125 -3 L 1.953125 -2.890625 L 1.90625 -2.75 L 1.875 -2.421875 L 1.875 -2.359375 L 1.859375 -2.3125 L 1.859375 -2.140625 L 1.84375 -2.078125 L 1.828125 -1.96875 L 1.8125 -1.90625 L 1.796875 -1.859375 L 1.78125 -1.734375 L 1.765625 -1.625 L 1.765625 -1.5625 L 1.734375 -1.3125 L 1.734375 -1.265625 L 1.703125 -1.15625 L 1.6875 -1.078125 L 1.6875 -1 L 1.671875 -0.859375 L 1.640625 -0.734375 L 1.640625 -0.6875 L 1.609375 -0.578125 L 1.609375 -0.34375 L 1.578125 -0.28125 L 1.5625 -0.234375 L 1.5625 -0.140625 L 1.5 -0.046875 L 1.40625 0 L 1.140625 0 L 1.09375 0.015625 Z M 1.03125 0.015625 "/></g></g><g style="fill:#4e47ff;fill-opacity:1;"><g transform="translate(31.522718, 17.056453)"><path style="stroke:none" d="M 2.140625 0.140625 L 1.90625 0.109375 L 1.796875 0.125 L 1.734375 0.109375 L 1.65625 0.109375 L 1.453125 0.046875 L 1.375 0.03125 L 1.25 0 L 1.1875 -0.03125 L 1.0625 -0.109375 L 0.90625 -0.25 L 0.78125 -0.390625 L 0.75 -0.4375 L 0.703125 -0.484375 L 0.6875 -0.53125 L 0.640625 -0.59375 L 0.5625 -0.703125 L 0.5625 -0.765625 L 0.546875 -0.828125 L 0.5 -0.96875 L 0.46875 -1.09375 L 0.453125 -1.21875 L 0.453125 -1.265625 L 0.421875 -1.4375 L 0.4375 -1.5 L 0.4375 -1.671875 L 0.46875 -1.765625 L 0.453125 -1.828125 L 0.453125 -1.890625 L 0.484375 -2.09375 L 0.515625 -2.21875 L 0.515625 -2.28125 L 0.53125 -2.40625 L 0.53125 -2.46875 L 0.5625 -2.59375 L 0.546875 -2.640625 L 0.5625 -2.75 L 0.578125 -2.8125 L 0.609375 -2.984375 L 0.640625 -3.078125 L 0.640625 -3.203125 L 0.671875 -3.296875 L 0.671875 -3.359375 L 0.703125 -3.484375 L 0.703125 -3.53125 L 0.71875 -3.59375 L 0.71875 -3.65625 L 0.765625 -3.734375 L 0.78125 -3.796875 L 0.78125 -3.921875 L 0.8125 -4.03125 L 0.828125 -4.09375 L 0.84375 -4.140625 L 0.859375 -4.265625 L 0.890625 -4.484375 L 0.9375 -4.546875 L 0.953125 -4.671875 L 1.015625 -4.78125 L 1.03125 -4.84375 L 1.078125 -4.953125 L 1.109375 -5.078125 L 1.171875 -5.1875 L 1.203125 -5.25 L 1.28125 -5.359375 L 1.296875 -5.421875 L 1.328125 -5.46875 L 1.40625 -5.59375 L 1.46875 -5.703125 L 1.53125 -5.734375 L 1.578125 -5.796875 L 1.703125 -5.921875 L 1.8125 -6 L 1.890625 -6.03125 L 1.953125 -6.078125 L 2.0625 -6.140625 L 2.15625 -6.1875 L 2.296875 -6.234375 L 2.34375 -6.234375 L 2.484375 -6.265625 L 2.5625 -6.28125 L 2.734375 -6.3125 L 2.859375 -6.3125 L 2.953125 -6.328125 L 3.125 -6.3125 L 3.171875 -6.3125 L 3.265625 -6.296875 L 3.40625 -6.28125 L 3.484375 -6.25 L 3.546875 -6.25 L 3.609375 -6.234375 L 3.734375 -6.171875 L 3.890625 -6.0625 L 3.96875 -6.015625 L 4.109375 -5.875 L 4.203125 -5.796875 L 4.25 -5.734375 L 4.28125 -5.671875 L 4.328125 -5.5625 L 4.359375 -5.515625 L 4.421875 -5.265625 L 4.4375 -5.09375 L 4.453125 -5.015625 L 4.453125 -4.96875 L 4.4375 -4.84375 L 4.4375 -4.5 L 4.40625 -4.4375 L 4.40625 -4.1875 L 4.390625 -4.0625 L 4.375 -3.921875 L 4.375 -3.78125 L 4.34375 -3.71875 L 4.328125 -3.578125 L 4.34375 -3.484375 L 4.296875 -3.390625 L 4.3125 -3.28125 L 4.265625 -3.171875 L 4.25 -3.0625 L 4.21875 -2.9375 L 4.21875 -2.828125 L 4.1875 -2.71875 L 4.15625 -2.671875 L 4.140625 -2.5 L 4.140625 -2.421875 L 4.125 -2.359375 L 4.109375 -2.234375 L 4.078125 -2.1875 L 3.984375 -1.875 L 4 -1.828125 L 3.953125 -1.71875 L 3.921875 -1.671875 L 3.921875 -1.5625 L 3.875 -1.46875 L 3.84375 -1.359375 L 3.84375 -1.296875 L 3.8125 -1.203125 L 3.78125 -1.140625 L 3.765625 -1.046875 L 3.703125 -0.9375 L 3.625 -0.765625 L 3.59375 -0.703125 L 3.515625 -0.59375 L 3.46875 -0.546875 L 3.421875 -0.484375 L 3.40625 -0.4375 L 3.203125 -0.234375 L 3.09375 -0.15625 L 3 -0.078125 L 2.953125 -0.046875 L 2.75 0.03125 L 2.6875 0.03125 L 2.4375 0.09375 L 2.34375 0.109375 Z M 2.078125 -1.0625 L 2.1875 -1.0625 L 2.3125 -1.09375 L 2.390625 -1.140625 L 2.515625 -1.21875 L 2.578125 -1.34375 L 2.625 -1.46875 L 2.65625 -1.53125 L 2.65625 -1.609375 L 2.671875 -1.734375 L 2.71875 -1.921875 L 2.734375 -2 L 2.75 -2.125 L 2.765625 -2.171875 L 2.828125 -2.421875 L 2.828125 -2.515625 L 2.859375 -2.59375 L 2.875 -2.734375 L 2.890625 -2.9375 L 2.921875 -3.015625 L 2.953125 -3.078125 L 2.96875 -3.25 L 3 -3.296875 L 2.984375 -3.453125 L 3.015625 -3.59375 L 3.03125 -3.6875 L 3.0625 -3.765625 L 3.078125 -3.828125 L 3.0625 -3.890625 L 3.078125 -4 L 3.09375 -4.078125 L 3.125 -4.203125 L 3.140625 -4.28125 L 3.140625 -4.390625 L 3.15625 -4.546875 L 3.15625 -4.671875 L 3.1875 -4.796875 L 3.140625 -4.96875 L 3.046875 -5.109375 L 2.90625 -5.171875 L 2.734375 -5.15625 L 2.671875 -5.140625 L 2.53125 -5.078125 L 2.4375 -5 L 2.375 -4.90625 L 2.34375 -4.796875 L 2.296875 -4.734375 L 2.25 -4.625 L 2.234375 -4.5625 L 2.21875 -4.484375 L 2.15625 -4.3125 L 2.15625 -4.21875 L 2.125 -4.09375 L 2.125 -4.046875 L 2.078125 -3.921875 L 2.0625 -3.796875 L 2.03125 -3.65625 L 2 -3.53125 L 1.984375 -3.390625 L 1.953125 -3.328125 L 1.921875 -3.1875 L 1.90625 -3.125 L 1.890625 -3 L 1.890625 -2.9375 L 1.875 -2.875 L 1.890625 -2.796875 L 1.859375 -2.734375 L 1.8125 -2.609375 L 1.828125 -2.546875 L 1.8125 -2.484375 L 1.8125 -2.4375 L 1.796875 -2.359375 L 1.796875 -2.296875 L 1.78125 -2.234375 L 1.78125 -2.15625 L 1.75 -2.03125 L 1.75 -1.96875 L 1.734375 -1.90625 L 1.75 -1.84375 L 1.75 -1.734375 L 1.703125 -1.640625 L 1.734375 -1.578125 L 1.734375 -1.34375 L 1.765625 -1.28125 L 1.78125 -1.234375 L 1.828125 -1.15625 L 1.875 -1.109375 L 1.953125 -1.09375 Z M 2.078125 -1.0625 "/></g></g><g style="fill:#4e47ff;fill-opacity:1;"><g transform="translate(35.81845, 17.056453)"><path style="stroke:none" d="M 1.75 0.109375 L 1.546875 0.09375 L 1.390625 0.09375 L 1.296875 0.078125 L 1.203125 0.046875 L 1.140625 0.03125 L 1 -0.03125 L 0.90625 -0.0625 L 0.8125 -0.125 L 0.703125 -0.1875 L 0.625 -0.3125 L 0.53125 -0.421875 L 0.453125 -0.546875 L 0.390625 -0.6875 L 0.375 -0.765625 L 0.3125 -0.921875 L 0.296875 -0.96875 L 0.28125 -1.09375 L 0.265625 -1.15625 L 0.25 -1.296875 L 0.25 -1.765625 L 0.265625 -1.90625 L 0.296875 -2.03125 L 0.3125 -2.171875 L 0.4375 -2.234375 L 0.65625 -2.265625 L 0.765625 -2.25 L 1.265625 -2.25 L 1.375 -2.234375 L 1.4375 -2.125 L 1.4375 -1.546875 L 1.453125 -1.34375 L 1.484375 -1.265625 L 1.546875 -1.125 L 1.625 -1.03125 L 1.75 -1.015625 L 1.828125 -1.015625 L 1.890625 -1.03125 L 2 -1.046875 L 2.03125 -1.09375 L 2.078125 -1.171875 L 2.125 -1.234375 L 2.15625 -1.34375 L 2.171875 -1.453125 L 2.171875 -1.875 L 2.140625 -2.03125 L 2.140625 -2.078125 L 2.109375 -2.21875 L 2.03125 -2.34375 L 1.96875 -2.4375 L 1.875 -2.625 L 1.859375 -2.671875 L 1.828125 -2.71875 L 1.765625 -2.765625 L 1.71875 -2.84375 L 1.625 -2.953125 L 1.578125 -3 L 1.546875 -3.0625 L 1.4375 -3.171875 L 1.34375 -3.28125 L 1.265625 -3.40625 L 1.171875 -3.5 L 1.078125 -3.578125 L 1.03125 -3.625 L 0.984375 -3.71875 L 0.9375 -3.859375 L 0.890625 -3.9375 L 0.84375 -4 L 0.8125 -4.125 L 0.765625 -4.25 L 0.765625 -4.359375 L 0.75 -4.4375 L 0.765625 -4.484375 L 0.765625 -4.75 L 0.78125 -4.921875 L 0.8125 -4.984375 L 0.8125 -5.109375 L 0.84375 -5.171875 L 0.875 -5.265625 L 0.890625 -5.34375 L 0.9375 -5.46875 L 1 -5.59375 L 1.03125 -5.640625 L 1.09375 -5.71875 L 1.125 -5.765625 L 1.171875 -5.84375 L 1.234375 -5.90625 L 1.34375 -5.984375 L 1.5 -6.109375 L 1.640625 -6.15625 L 1.734375 -6.203125 L 1.90625 -6.25 L 2.0625 -6.296875 L 2.328125 -6.296875 L 2.546875 -6.28125 L 2.609375 -6.28125 L 2.6875 -6.265625 L 2.828125 -6.25 L 2.984375 -6.203125 L 3.03125 -6.203125 L 3.078125 -6.171875 L 3.1875 -6.125 L 3.25 -6.0625 L 3.3125 -6.046875 L 3.53125 -5.828125 L 3.546875 -5.78125 L 3.609375 -5.671875 L 3.65625 -5.625 L 3.671875 -5.53125 L 3.6875 -5.46875 L 3.75 -5.25 L 3.75 -4.734375 L 3.71875 -4.484375 L 3.671875 -4.28125 L 3.578125 -4.234375 L 3.40625 -4.21875 L 2.921875 -4.21875 L 2.796875 -4.234375 L 2.671875 -4.234375 L 2.59375 -4.296875 L 2.59375 -4.40625 L 2.609375 -4.484375 L 2.625 -4.75 L 2.625 -4.96875 L 2.609375 -5.0625 L 2.59375 -5.125 L 2.5 -5.203125 L 2.421875 -5.265625 L 2.296875 -5.28125 L 2.203125 -5.25 L 2.09375 -5.203125 L 2.03125 -5.078125 L 2 -5 L 1.984375 -4.9375 L 1.953125 -4.84375 L 1.953125 -4.546875 L 2.015625 -4.375 L 2.09375 -4.25 L 2.1875 -4.0625 L 2.28125 -3.9375 L 2.40625 -3.796875 L 2.4375 -3.75 L 2.484375 -3.703125 L 2.515625 -3.625 L 2.546875 -3.59375 L 2.609375 -3.546875 L 2.6875 -3.484375 L 2.71875 -3.421875 L 2.765625 -3.40625 L 2.796875 -3.359375 L 2.875 -3.265625 L 2.921875 -3.1875 L 3.015625 -3.078125 L 3.078125 -2.9375 L 3.15625 -2.828125 L 3.171875 -2.796875 L 3.25 -2.609375 L 3.296875 -2.5 L 3.359375 -2.25 L 3.359375 -2.171875 L 3.375 -2.125 L 3.421875 -1.96875 L 3.4375 -1.90625 L 3.421875 -1.796875 L 3.421875 -1.359375 L 3.390625 -1.234375 L 3.390625 -1.046875 L 3.34375 -0.9375 L 3.328125 -0.875 L 3.3125 -0.78125 L 3.265625 -0.671875 L 3.1875 -0.515625 L 3.140625 -0.484375 L 3.09375 -0.390625 L 3.046875 -0.359375 L 2.984375 -0.28125 L 2.9375 -0.234375 L 2.859375 -0.171875 L 2.765625 -0.125 L 2.6875 -0.0625 L 2.59375 -0.03125 L 2.53125 0 L 2.40625 0.046875 L 2.328125 0.046875 L 2.21875 0.09375 L 1.90625 0.09375 L 1.859375 0.109375 Z M 1.75 0.109375 "/></g></g><g style="fill:#4e47ff;fill-opacity:1;"><g transform="translate(39.246129, 17.056453)"><path style="stroke:none" d="M 1.21875 0 L 1.15625 -0.015625 L 1.03125 -0.015625 L 0.9375 -0.0625 L 0.921875 -0.171875 L 0.9375 -0.28125 L 0.953125 -0.40625 L 0.953125 -0.453125 L 0.96875 -0.515625 L 0.96875 -0.5625 L 1 -0.6875 L 1 -0.78125 L 1.03125 -0.859375 L 1.078125 -1.046875 L 1.078125 -1.15625 L 1.09375 -1.265625 L 1.125 -1.328125 L 1.140625 -1.46875 L 1.171875 -1.578125 L 1.203125 -1.65625 L 1.203125 -1.75 L 1.21875 -1.890625 L 1.265625 -2 L 1.265625 -2.125 L 1.296875 -2.21875 L 1.3125 -2.328125 L 1.359375 -2.46875 L 1.34375 -2.578125 L 1.3125 -2.671875 L 1.3125 -2.8125 L 1.296875 -2.875 L 1.28125 -3.015625 L 1.265625 -3.140625 L 1.265625 -3.21875 L 1.234375 -3.28125 L 1.21875 -3.40625 L 1.21875 -3.453125 L 1.203125 -3.59375 L 1.171875 -3.75 L 1.15625 -3.8125 L 1.140625 -3.921875 L 1.09375 -4.03125 L 1.078125 -4.140625 L 1.078125 -4.203125 L 1.015625 -4.484375 L 1 -4.546875 L 0.984375 -4.78125 L 0.96875 -4.84375 L 0.96875 -4.953125 L 0.953125 -5.015625 L 0.9375 -5.140625 L 0.9375 -5.203125 L 0.890625 -5.328125 L 0.859375 -5.59375 L 0.84375 -5.71875 L 0.84375 -5.765625 L 0.828125 -5.890625 L 0.8125 -6 L 0.8125 -6.09375 L 0.84375 -6.171875 L 0.890625 -6.1875 L 0.953125 -6.1875 L 1.1875 -6.203125 L 1.3125 -6.1875 L 1.40625 -6.203125 L 1.46875 -6.1875 L 1.5625 -6.203125 L 1.9375 -6.203125 L 2.03125 -6.09375 L 2.0625 -6 L 2.0625 -5.796875 L 2.078125 -5.734375 L 2.078125 -5.640625 L 2.125 -5.578125 L 2.140625 -5.328125 L 2.125 -5.265625 L 2.171875 -5.078125 L 2.203125 -5 L 2.203125 -4.796875 L 2.234375 -4.703125 L 2.234375 -4.625 L 2.25 -4.515625 L 2.28125 -4.28125 L 2.296875 -4.15625 L 2.328125 -4.140625 L 2.359375 -4.1875 L 2.375 -4.25 L 2.390625 -4.28125 L 2.4375 -4.390625 L 2.484375 -4.453125 L 2.484375 -4.515625 L 2.5625 -4.609375 L 2.609375 -4.71875 L 2.65625 -4.8125 L 2.796875 -5.140625 L 2.828125 -5.203125 L 2.84375 -5.265625 L 2.921875 -5.375 L 2.953125 -5.5 L 3.03125 -5.671875 L 3.078125 -5.796875 L 3.125 -5.90625 L 3.15625 -5.96875 L 3.203125 -6.046875 L 3.296875 -6.171875 L 3.359375 -6.203125 L 3.65625 -6.21875 L 3.78125 -6.203125 L 4.15625 -6.203125 L 4.25 -6.1875 L 4.4375 -6.203125 L 4.53125 -6.140625 L 4.53125 -6.03125 L 4.5 -5.921875 L 4.484375 -5.875 L 4.40625 -5.78125 L 4.390625 -5.71875 L 4.34375 -5.609375 L 4.3125 -5.5625 L 4.296875 -5.5 L 4.25 -5.390625 L 4.203125 -5.34375 L 4.171875 -5.25 L 4.109375 -5.140625 L 4.078125 -5.078125 L 4.046875 -5.03125 L 4.03125 -4.984375 L 3.953125 -4.8125 L 3.890625 -4.75 L 3.84375 -4.640625 L 3.78125 -4.53125 L 3.765625 -4.46875 L 3.734375 -4.421875 L 3.71875 -4.375 L 3.625 -4.21875 L 3.578125 -4.109375 L 3.546875 -4.046875 L 3.53125 -3.984375 L 3.46875 -3.875 L 3.453125 -3.84375 L 3.40625 -3.78125 L 3.40625 -3.734375 L 3.3125 -3.609375 L 3.28125 -3.5625 L 3.25 -3.5 L 3.1875 -3.390625 L 3.0625 -3.140625 L 2.9375 -2.921875 L 2.890625 -2.859375 L 2.828125 -2.765625 L 2.765625 -2.65625 L 2.734375 -2.546875 L 2.703125 -2.5 L 2.6875 -2.4375 L 2.65625 -2.390625 L 2.609375 -2.34375 L 2.59375 -2.265625 L 2.59375 -2.203125 L 2.5625 -2.078125 L 2.53125 -1.984375 L 2.5 -1.796875 L 2.484375 -1.734375 L 2.484375 -1.6875 L 2.46875 -1.5625 L 2.40625 -1.3125 L 2.359375 -1.1875 L 2.359375 -1.125 L 2.328125 -1.03125 L 2.3125 -0.96875 L 2.3125 -0.921875 L 2.296875 -0.796875 L 2.25 -0.609375 L 2.21875 -0.46875 L 2.1875 -0.34375 L 2.15625 -0.1875 L 2.125 0 L 1.796875 0 L 1.734375 -0.015625 L 1.671875 0 L 1.59375 0 L 1.46875 -0.015625 L 1.40625 0 Z M 1.21875 0 "/></g></g><g style="fill:#000000;fill-opacity:1;"><g transform="translate(43.022214, 17.056453)"><path style="stroke:none" d="M 0.6875 0.015625 L 0.546875 0 L 0.484375 -0.015625 L 0.328125 0 L 0.28125 -0.046875 L 0.28125 -0.21875 L 0.296875 -0.265625 L 0.296875 -0.328125 L 0.3125 -0.453125 L 0.3125 -0.5 L 0.34375 -0.625 L 0.375 -0.765625 L 0.40625 -0.875 L 0.40625 -0.9375 L 0.4375 -1.046875 L 0.4375 -1.109375 L 0.453125 -1.15625 L 0.484375 -1.359375 L 0.515625 -1.421875 L 0.515625 -1.53125 L 0.53125 -1.59375 L 0.546875 -1.640625 L 0.578125 -1.765625 L 0.59375 -1.8125 L 0.609375 -1.921875 L 0.609375 -1.96875 L 0.640625 -2.0625 L 0.640625 -2.15625 L 0.671875 -2.203125 L 0.671875 -2.265625 L 0.6875 -2.328125 L 0.703125 -2.453125 L 0.71875 -2.640625 L 0.75 -2.703125 L 0.765625 -2.765625 L 0.765625 -2.890625 L 0.8125 -3.078125 L 0.828125 -3.125 L 0.84375 -3.25 L 0.859375 -3.328125 L 0.875 -3.453125 L 0.90625 -3.59375 L 0.9375 -3.71875 L 0.9375 -3.9375 L 0.953125 -4 L 0.984375 -4.0625 L 1 -4.171875 L 1 -4.21875 L 1.03125 -4.375 L 1.046875 -4.46875 L 1.03125 -4.5 L 1.0625 -4.609375 L 1.078125 -4.671875 L 1.078125 -4.828125 L 1.09375 -4.90625 L 1.125 -5.015625 L 1.15625 -5.109375 L 1.15625 -5.203125 L 1.171875 -5.265625 L 1.171875 -5.34375 L 1.203125 -5.40625 L 1.203125 -5.515625 L 1.21875 -5.578125 L 1.265625 -5.71875 L 1.265625 -5.78125 L 1.28125 -5.859375 L 1.296875 -5.984375 L 1.34375 -6.171875 L 1.421875 -6.203125 L 3.078125 -6.203125 L 3.203125 -6.1875 L 3.28125 -6.1875 L 3.390625 -6.171875 L 3.578125 -6.140625 L 3.71875 -6.125 L 3.78125 -6.109375 L 3.84375 -6.0625 L 3.90625 -6.03125 L 4.015625 -5.96875 L 4.109375 -5.90625 L 4.140625 -5.859375 L 4.1875 -5.78125 L 4.25 -5.71875 L 4.265625 -5.65625 L 4.328125 -5.53125 L 4.34375 -5.46875 L 4.375 -5.375 L 4.390625 -5.28125 L 4.390625 -5.21875 L 4.421875 -5.125 L 4.40625 -5.03125 L 4.421875 -4.90625 L 4.421875 -4.84375 L 4.4375 -4.734375 L 4.40625 -4.546875 L 4.390625 -4.484375 L 4.375 -4.28125 L 4.359375 -4.15625 L 4.328125 -4.109375 L 4.328125 -4.03125 L 4.296875 -3.96875 L 4.28125 -3.921875 L 4.265625 -3.859375 L 4.25 -3.734375 L 4.21875 -3.671875 L 4.171875 -3.546875 L 4.109375 -3.375 L 4.0625 -3.28125 L 4 -3.171875 L 3.921875 -3.03125 L 3.859375 -2.984375 L 3.796875 -2.875 L 3.71875 -2.8125 L 3.65625 -2.71875 L 3.609375 -2.65625 L 3.5 -2.5625 L 3.453125 -2.515625 L 3.328125 -2.453125 L 3.25 -2.421875 L 3.125 -2.375 L 2.984375 -2.328125 L 2.765625 -2.296875 L 2.640625 -2.28125 L 2.390625 -2.265625 L 2.21875 -2.28125 L 1.890625 -2.28125 L 1.890625 -2.203125 L 1.859375 -2.140625 L 1.859375 -2.015625 L 1.828125 -1.96875 L 1.828125 -1.859375 L 1.8125 -1.8125 L 1.8125 -1.75 L 1.78125 -1.625 L 1.78125 -1.578125 L 1.75 -1.453125 L 1.734375 -1.375 L 1.703125 -1.265625 L 1.6875 -1.203125 L 1.671875 -1.09375 L 1.65625 -1.03125 L 1.625 -0.96875 L 1.625 -0.890625 L 1.609375 -0.75 L 1.609375 -0.625 L 1.5625 -0.578125 L 1.5625 -0.4375 L 1.546875 -0.390625 L 1.53125 -0.328125 L 1.5 -0.25 L 1.5 -0.171875 L 1.484375 -0.109375 L 1.46875 0 L 1.40625 0.015625 Z M 2.078125 -3.40625 L 2.3125 -3.40625 L 2.40625 -3.421875 L 2.578125 -3.4375 L 2.640625 -3.46875 L 2.78125 -3.578125 L 2.875 -3.65625 L 2.9375 -3.75 L 2.984375 -3.8125 L 3.015625 -3.9375 L 3.03125 -4.015625 L 3.078125 -4.09375 L 3.109375 -4.25 L 3.140625 -4.484375 L 3.15625 -4.71875 L 3.15625 -4.875 L 3.125 -4.984375 L 3.078125 -5.0625 L 2.984375 -5.125 L 2.890625 -5.140625 L 2.65625 -5.15625 L 2.453125 -5.140625 L 2.390625 -5.125 L 2.34375 -5.015625 L 2.328125 -4.984375 L 2.328125 -4.890625 L 2.296875 -4.734375 L 2.28125 -4.671875 L 2.234375 -4.390625 L 2.1875 -4.15625 L 2.171875 -4.0625 L 2.171875 -3.984375 L 2.15625 -3.90625 L 2.125 -3.6875 L 2.125 -3.609375 L 2.09375 -3.484375 Z M 2.078125 -3.40625 "/></g></g><g style="fill:#000000;fill-opacity:1;"><g transform="translate(46.75091, 17.056453)"><path style="stroke:none" d="M 0.71875 0.015625 L 0.578125 0.015625 L 0.515625 0 L -0.125 -0.015625 L -0.203125 -0.03125 L -0.21875 -0.09375 L -0.1875 -0.21875 L -0.078125 -0.4375 L 0.015625 -0.703125 L 0.078125 -0.8125 L 0.109375 -0.90625 L 0.21875 -1.125 L 0.25 -1.234375 L 0.3125 -1.40625 L 0.34375 -1.453125 L 0.375 -1.515625 L 0.421875 -1.625 L 0.4375 -1.671875 L 0.453125 -1.734375 L 0.484375 -1.796875 L 0.515625 -1.90625 L 0.609375 -2.09375 L 0.625 -2.15625 L 0.640625 -2.234375 L 0.6875 -2.296875 L 0.75 -2.40625 L 0.765625 -2.46875 L 0.8125 -2.59375 L 0.84375 -2.71875 L 0.875 -2.765625 L 0.921875 -2.890625 L 0.953125 -2.9375 L 1.015625 -3.1875 L 1.046875 -3.265625 L 1.109375 -3.375 L 1.15625 -3.53125 L 1.203125 -3.625 L 1.234375 -3.671875 L 1.265625 -3.796875 L 1.296875 -3.859375 L 1.328125 -3.96875 L 1.34375 -4.015625 L 1.40625 -4.125 L 1.421875 -4.25 L 1.46875 -4.3125 L 1.5 -4.375 L 1.578125 -4.546875 L 1.625 -4.671875 L 1.640625 -4.71875 L 1.703125 -4.796875 L 1.734375 -4.890625 L 1.75 -4.953125 L 1.859375 -5.171875 L 1.875 -5.234375 L 1.890625 -5.28125 L 1.90625 -5.34375 L 1.96875 -5.4375 L 2.015625 -5.53125 L 2.078125 -5.703125 L 2.140625 -5.8125 L 2.21875 -5.96875 L 2.234375 -6.03125 L 2.265625 -6.09375 L 2.296875 -6.1875 L 2.859375 -6.1875 L 3.015625 -6.203125 L 3.09375 -6.203125 L 3.15625 -6.1875 L 3.390625 -6.1875 L 3.421875 -6.171875 L 3.484375 -6.125 L 3.515625 -5.75 L 3.515625 -5.5625 L 3.53125 -5.5 L 3.53125 -5.34375 L 3.546875 -5.015625 L 3.546875 -4.78125 L 3.578125 -4.609375 L 3.578125 -4.09375 L 3.59375 -3.96875 L 3.59375 -3.453125 L 3.609375 -3.296875 L 3.625 -3.203125 L 3.625 -2.75 L 3.640625 -2.6875 L 3.640625 -2.421875 L 3.65625 -2.015625 L 3.65625 -1.5 L 3.671875 -1.15625 L 3.671875 -1 L 3.6875 -0.9375 L 3.6875 -0.796875 L 3.671875 -0.671875 L 3.6875 -0.609375 L 3.6875 -0.140625 C 3.695312 -0.117188 3.703125 -0.09375 3.703125 -0.0625 C 3.703125 -0.03125 3.691406 -0.0078125 3.671875 0 C 3.648438 0.0078125 3.628906 0.0078125 3.609375 0 C 3.597656 0 3.585938 0 3.578125 0 L 3.515625 0.015625 L 3.4375 0 L 3.3125 0 L 3.125 0.015625 L 3.046875 0.015625 L 2.9375 0 L 2.875 0.015625 L 2.546875 0.015625 L 2.5 -0.015625 L 2.484375 -0.109375 L 2.484375 -0.265625 L 2.46875 -0.359375 L 2.484375 -0.4375 L 2.484375 -0.859375 L 2.46875 -0.9375 L 2.28125 -0.9375 L 2.140625 -0.953125 L 1.75 -0.96875 L 1.5 -0.96875 L 1.46875 -0.875 L 1.375 -0.6875 L 1.359375 -0.625 L 1.3125 -0.515625 L 1.234375 -0.359375 L 1.171875 -0.21875 L 1.15625 -0.125 L 1.125 -0.078125 L 1.09375 -0.015625 L 1.03125 0.015625 Z M 2.171875 -2.125 L 2.4375 -2.125 L 2.5 -2.15625 L 2.5 -2.65625 L 2.515625 -2.71875 L 2.515625 -2.875 L 2.53125 -2.9375 L 2.53125 -3.484375 L 2.546875 -3.8125 L 2.53125 -4.015625 L 2.46875 -3.984375 L 2.421875 -3.875 L 2.390625 -3.734375 L 2.3125 -3.5 L 2.28125 -3.421875 L 2.234375 -3.34375 L 2.234375 -3.28125 L 2.203125 -3.21875 L 2.171875 -3.140625 L 2.140625 -3.078125 L 2.125 -3 L 2.0625 -2.796875 L 2.0625 -2.734375 L 2.015625 -2.609375 L 1.96875 -2.546875 L 1.9375 -2.390625 L 1.90625 -2.328125 L 1.890625 -2.25 L 1.875 -2.1875 L 1.9375 -2.140625 L 2 -2.140625 L 2.09375 -2.125 Z M 2.171875 -2.125 "/></g></g><g style="fill:#4e47ff;fill-opacity:1;"><g transform="translate(50.711226, 17.056453)"><path style="stroke:none" d="M 1.21875 0.015625 L 0.90625 0.015625 L 0.78125 -0.015625 L 0.703125 -0.015625 L 0.640625 0 L 0.546875 -0.015625 L 0.421875 -0.015625 L 0.34375 -0.03125 L 0.28125 -0.09375 L 0.265625 -0.21875 L 0.3125 -0.34375 L 0.3125 -0.484375 L 0.34375 -0.546875 L 0.359375 -0.671875 L 0.359375 -0.734375 L 0.390625 -0.875 L 0.421875 -1 L 0.421875 -1.0625 L 0.453125 -1.171875 L 0.453125 -1.234375 L 0.484375 -1.390625 L 0.5 -1.484375 L 0.515625 -1.5625 L 0.546875 -1.640625 L 0.578125 -1.828125 L 0.578125 -1.890625 L 0.609375 -1.953125 L 0.609375 -2.015625 L 0.625 -2.078125 L 0.625 -2.140625 L 0.6875 -2.328125 L 0.703125 -2.46875 L 0.703125 -2.515625 L 0.71875 -2.578125 L 0.71875 -2.640625 L 0.734375 -2.6875 L 0.75 -2.8125 L 0.75 -2.9375 L 0.78125 -3.0625 L 0.78125 -3.125 L 0.8125 -3.25 L 0.84375 -3.328125 L 0.84375 -3.4375 L 0.859375 -3.546875 L 0.890625 -3.65625 L 0.9375 -3.78125 L 0.953125 -3.96875 L 0.953125 -4.09375 L 0.984375 -4.15625 L 1 -4.28125 L 1.015625 -4.328125 L 1 -4.390625 L 1.03125 -4.5 L 1.046875 -4.546875 L 1.078125 -4.671875 L 1.078125 -4.734375 L 1.109375 -4.84375 L 1.109375 -4.984375 L 1.125 -5.09375 L 1.140625 -5.140625 L 1.15625 -5.265625 L 1.1875 -5.375 L 1.203125 -5.4375 L 1.21875 -5.484375 L 1.21875 -5.59375 L 1.234375 -5.6875 L 1.28125 -5.78125 L 1.296875 -5.921875 L 1.3125 -5.96875 L 1.3125 -6.03125 L 1.375 -6.125 L 1.4375 -6.140625 L 1.5 -6.1875 L 1.5625 -6.1875 L 1.6875 -6.203125 L 1.765625 -6.1875 L 1.890625 -6.1875 L 1.953125 -6.203125 L 2.484375 -6.203125 L 2.59375 -6.1875 L 2.625 -6.09375 L 2.609375 -6.046875 L 2.609375 -5.921875 L 2.59375 -5.90625 L 2.59375 -5.75 L 2.5625 -5.71875 L 2.5625 -5.640625 L 2.546875 -5.59375 L 2.53125 -5.46875 L 2.484375 -5.390625 L 2.484375 -5.203125 L 2.46875 -5.140625 L 2.421875 -4.921875 L 2.40625 -4.8125 L 2.390625 -4.765625 L 2.375 -4.65625 L 2.359375 -4.59375 L 2.359375 -4.484375 L 2.34375 -4.4375 L 2.328125 -4.3125 L 2.296875 -4.203125 L 2.28125 -4.09375 L 2.265625 -4.046875 L 2.234375 -3.921875 L 2.21875 -3.84375 L 2.21875 -3.765625 L 2.203125 -3.703125 L 2.203125 -3.578125 L 2.171875 -3.453125 L 2.15625 -3.359375 L 2.109375 -3.09375 L 2.078125 -2.984375 L 2.046875 -2.921875 L 2.046875 -2.84375 L 2.015625 -2.734375 L 2 -2.609375 L 1.984375 -2.5 L 1.953125 -2.390625 L 1.953125 -2.3125 L 1.90625 -2.1875 L 1.90625 -2.125 L 1.890625 -2 L 1.890625 -1.828125 L 1.84375 -1.734375 L 1.859375 -1.640625 L 1.828125 -1.5 L 1.78125 -1.3125 L 1.78125 -1.25 L 1.75 -1.125 L 1.734375 -1 L 1.71875 -0.890625 L 1.71875 -0.828125 L 1.6875 -0.71875 L 1.65625 -0.515625 L 1.625 -0.40625 L 1.609375 -0.28125 L 1.578125 -0.15625 L 1.578125 -0.09375 L 1.546875 -0.015625 L 1.453125 0.015625 Z M 1.21875 0.015625 "/></g></g><g style="fill:#4e47ff;fill-opacity:1;"><g transform="translate(53.04066, 17.056453)"><path style="stroke:none" d="M 0.390625 0.015625 L 0.3125 -0.03125 L 0.28125 -0.09375 L 0.28125 -0.15625 L 0.265625 -0.203125 L 0.34375 -0.4375 L 0.34375 -0.5 L 0.359375 -0.546875 L 0.390625 -0.671875 L 0.390625 -0.796875 L 0.421875 -0.90625 L 0.421875 -0.96875 L 0.4375 -1.03125 L 0.453125 -1.140625 L 0.46875 -1.21875 L 0.46875 -1.328125 L 0.515625 -1.453125 L 0.53125 -1.5 L 0.5625 -1.5625 L 0.546875 -1.625 L 0.578125 -1.734375 L 0.609375 -1.796875 L 0.609375 -1.90625 L 0.625 -2.03125 L 0.640625 -2.078125 L 0.640625 -2.203125 L 0.671875 -2.328125 L 0.671875 -2.375 L 0.703125 -2.5 L 0.703125 -2.5625 L 0.75 -2.6875 L 0.78125 -2.953125 L 0.8125 -3.078125 L 0.8125 -3.125 L 0.875 -3.359375 L 0.890625 -3.484375 L 0.90625 -3.59375 L 0.953125 -3.703125 L 0.953125 -3.890625 L 1 -4.015625 L 1 -4.078125 L 1.015625 -4.1875 L 1.046875 -4.375 L 1.03125 -4.4375 L 1.0625 -4.515625 L 1.109375 -4.703125 L 1.09375 -4.765625 L 1.109375 -4.84375 L 1.125 -4.953125 L 1.140625 -5.046875 L 1.171875 -5.109375 L 1.171875 -5.171875 L 1.1875 -5.234375 L 1.1875 -5.28125 L 1.21875 -5.34375 L 1.234375 -5.484375 L 1.265625 -5.625 L 1.296875 -5.734375 L 1.296875 -5.90625 L 1.3125 -5.953125 L 1.359375 -6.125 L 1.390625 -6.1875 L 1.53125 -6.203125 L 1.75 -6.203125 L 2.078125 -6.1875 L 2.59375 -6.1875 L 2.625 -6.078125 L 2.609375 -6.015625 L 2.609375 -5.953125 L 2.5625 -5.734375 L 2.5625 -5.671875 L 2.546875 -5.625 L 2.484375 -5.25 L 2.40625 -4.9375 L 2.390625 -4.8125 L 2.390625 -4.75 L 2.34375 -4.625 L 2.328125 -4.5 L 2.296875 -4.4375 L 2.3125 -4.375 L 2.296875 -4.296875 L 2.234375 -4.046875 L 2.21875 -3.9375 L 2.171875 -3.875 L 2.1875 -3.796875 L 2.171875 -3.734375 L 2.171875 -3.671875 L 2.140625 -3.484375 L 2.125 -3.421875 L 2.125 -3.296875 L 2.109375 -3.234375 L 2.078125 -3.09375 L 2.078125 -3.03125 L 2.03125 -2.890625 L 2.03125 -2.765625 L 2 -2.640625 L 2 -2.5625 L 1.984375 -2.5 L 1.953125 -2.359375 L 1.953125 -2.296875 L 1.9375 -2.234375 L 1.921875 -2.109375 L 1.890625 -2 L 1.875 -1.875 L 1.859375 -1.796875 L 1.859375 -1.640625 L 1.84375 -1.59375 L 1.828125 -1.53125 L 1.796875 -1.34375 L 1.796875 -1.265625 L 1.84375 -1.21875 L 1.9375 -1.21875 L 2.015625 -1.203125 L 2.46875 -1.203125 L 2.671875 -1.21875 L 2.890625 -1.21875 L 2.953125 -1.1875 L 2.9375 -1.046875 L 2.921875 -1 L 2.9375 -0.9375 L 2.90625 -0.859375 L 2.859375 -0.546875 L 2.828125 -0.484375 L 2.828125 -0.375 L 2.8125 -0.234375 L 2.765625 -0.09375 L 2.703125 -0.03125 L 2.53125 -0.03125 L 2.421875 -0.015625 L 2.21875 0.015625 L 2.0625 0 L 1.9375 0.015625 L 1.8125 -0.015625 L 1.625 0 L 0.90625 0 L 0.8125 0.015625 L 0.5625 0.015625 L 0.5 0 Z M 0.390625 0.015625 "/></g></g><g style="fill:#000000;fill-opacity:1;"><g transform="translate(56.166115, 17.056453)"><path style="stroke:none" d="M 1.21875 0.015625 L 0.90625 0.015625 L 0.78125 -0.015625 L 0.703125 -0.015625 L 0.640625 0 L 0.546875 -0.015625 L 0.421875 -0.015625 L 0.34375 -0.03125 L 0.28125 -0.09375 L 0.265625 -0.21875 L 0.3125 -0.34375 L 0.3125 -0.484375 L 0.34375 -0.546875 L 0.359375 -0.671875 L 0.359375 -0.734375 L 0.390625 -0.875 L 0.421875 -1 L 0.421875 -1.0625 L 0.453125 -1.171875 L 0.453125 -1.234375 L 0.484375 -1.390625 L 0.5 -1.484375 L 0.515625 -1.5625 L 0.546875 -1.640625 L 0.578125 -1.828125 L 0.578125 -1.890625 L 0.609375 -1.953125 L 0.609375 -2.015625 L 0.625 -2.078125 L 0.625 -2.140625 L 0.6875 -2.328125 L 0.703125 -2.46875 L 0.703125 -2.515625 L 0.71875 -2.578125 L 0.71875 -2.640625 L 0.734375 -2.6875 L 0.75 -2.8125 L 0.75 -2.9375 L 0.78125 -3.0625 L 0.78125 -3.125 L 0.8125 -3.25 L 0.84375 -3.328125 L 0.84375 -3.4375 L 0.859375 -3.546875 L 0.890625 -3.65625 L 0.9375 -3.78125 L 0.953125 -3.96875 L 0.953125 -4.09375 L 0.984375 -4.15625 L 1 -4.28125 L 1.015625 -4.328125 L 1 -4.390625 L 1.03125 -4.5 L 1.046875 -4.546875 L 1.078125 -4.671875 L 1.078125 -4.734375 L 1.109375 -4.84375 L 1.109375 -4.984375 L 1.125 -5.09375 L 1.140625 -5.140625 L 1.15625 -5.265625 L 1.1875 -5.375 L 1.203125 -5.4375 L 1.21875 -5.484375 L 1.21875 -5.59375 L 1.234375 -5.6875 L 1.28125 -5.78125 L 1.296875 -5.921875 L 1.3125 -5.96875 L 1.3125 -6.03125 L 1.375 -6.125 L 1.4375 -6.140625 L 1.5 -6.1875 L 1.5625 -6.1875 L 1.6875 -6.203125 L 1.765625 -6.1875 L 1.890625 -6.1875 L 1.953125 -6.203125 L 2.484375 -6.203125 L 2.59375 -6.1875 L 2.625 -6.09375 L 2.609375 -6.046875 L 2.609375 -5.921875 L 2.59375 -5.90625 L 2.59375 -5.75 L 2.5625 -5.71875 L 2.5625 -5.640625 L 2.546875 -5.59375 L 2.53125 -5.46875 L 2.484375 -5.390625 L 2.484375 -5.203125 L 2.46875 -5.140625 L 2.421875 -4.921875 L 2.40625 -4.8125 L 2.390625 -4.765625 L 2.375 -4.65625 L 2.359375 -4.59375 L 2.359375 -4.484375 L 2.34375 -4.4375 L 2.328125 -4.3125 L 2.296875 -4.203125 L 2.28125 -4.09375 L 2.265625 -4.046875 L 2.234375 -3.921875 L 2.21875 -3.84375 L 2.21875 -3.765625 L 2.203125 -3.703125 L 2.203125 -3.578125 L 2.171875 -3.453125 L 2.15625 -3.359375 L 2.109375 -3.09375 L 2.078125 -2.984375 L 2.046875 -2.921875 L 2.046875 -2.84375 L 2.015625 -2.734375 L 2 -2.609375 L 1.984375 -2.5 L 1.953125 -2.390625 L 1.953125 -2.3125 L 1.90625 -2.1875 L 1.90625 -2.125 L 1.890625 -2 L 1.890625 -1.828125 L 1.84375 -1.734375 L 1.859375 -1.640625 L 1.828125 -1.5 L 1.78125 -1.3125 L 1.78125 -1.25 L 1.75 -1.125 L 1.734375 -1 L 1.71875 -0.890625 L 1.71875 -0.828125 L 1.6875 -0.71875 L 1.65625 -0.515625 L 1.625 -0.40625 L 1.609375 -0.28125 L 1.578125 -0.15625 L 1.578125 -0.09375 L 1.546875 -0.015625 L 1.453125 0.015625 Z M 1.21875 0.015625 "/></g></g><g style="fill:#000000;fill-opacity:1;"><g transform="translate(58.495549, 17.056453)"><path style="stroke:none" d="M 2.140625 0.140625 L 1.90625 0.109375 L 1.796875 0.125 L 1.734375 0.109375 L 1.65625 0.109375 L 1.453125 0.046875 L 1.375 0.03125 L 1.25 0 L 1.1875 -0.03125 L 1.0625 -0.109375 L 0.90625 -0.25 L 0.78125 -0.390625 L 0.75 -0.4375 L 0.703125 -0.484375 L 0.6875 -0.53125 L 0.640625 -0.59375 L 0.5625 -0.703125 L 0.5625 -0.765625 L 0.546875 -0.828125 L 0.5 -0.96875 L 0.46875 -1.09375 L 0.453125 -1.21875 L 0.453125 -1.265625 L 0.421875 -1.4375 L 0.4375 -1.5 L 0.4375 -1.671875 L 0.46875 -1.765625 L 0.453125 -1.828125 L 0.453125 -1.890625 L 0.484375 -2.09375 L 0.515625 -2.21875 L 0.515625 -2.28125 L 0.53125 -2.40625 L 0.53125 -2.46875 L 0.5625 -2.59375 L 0.546875 -2.640625 L 0.5625 -2.75 L 0.578125 -2.8125 L 0.609375 -2.984375 L 0.640625 -3.078125 L 0.640625 -3.203125 L 0.671875 -3.296875 L 0.671875 -3.359375 L 0.703125 -3.484375 L 0.703125 -3.53125 L 0.71875 -3.59375 L 0.71875 -3.65625 L 0.765625 -3.734375 L 0.78125 -3.796875 L 0.78125 -3.921875 L 0.8125 -4.03125 L 0.828125 -4.09375 L 0.84375 -4.140625 L 0.859375 -4.265625 L 0.890625 -4.484375 L 0.9375 -4.546875 L 0.953125 -4.671875 L 1.015625 -4.78125 L 1.03125 -4.84375 L 1.078125 -4.953125 L 1.109375 -5.078125 L 1.171875 -5.1875 L 1.203125 -5.25 L 1.28125 -5.359375 L 1.296875 -5.421875 L 1.328125 -5.46875 L 1.40625 -5.59375 L 1.46875 -5.703125 L 1.53125 -5.734375 L 1.578125 -5.796875 L 1.703125 -5.921875 L 1.8125 -6 L 1.890625 -6.03125 L 1.953125 -6.078125 L 2.0625 -6.140625 L 2.15625 -6.1875 L 2.296875 -6.234375 L 2.34375 -6.234375 L 2.484375 -6.265625 L 2.5625 -6.28125 L 2.734375 -6.3125 L 2.859375 -6.3125 L 2.953125 -6.328125 L 3.125 -6.3125 L 3.171875 -6.3125 L 3.265625 -6.296875 L 3.40625 -6.28125 L 3.484375 -6.25 L 3.546875 -6.25 L 3.609375 -6.234375 L 3.734375 -6.171875 L 3.890625 -6.0625 L 3.96875 -6.015625 L 4.109375 -5.875 L 4.203125 -5.796875 L 4.25 -5.734375 L 4.28125 -5.671875 L 4.328125 -5.5625 L 4.359375 -5.515625 L 4.421875 -5.265625 L 4.4375 -5.09375 L 4.453125 -5.015625 L 4.453125 -4.96875 L 4.4375 -4.84375 L 4.4375 -4.5 L 4.40625 -4.4375 L 4.40625 -4.1875 L 4.390625 -4.0625 L 4.375 -3.921875 L 4.375 -3.78125 L 4.34375 -3.71875 L 4.328125 -3.578125 L 4.34375 -3.484375 L 4.296875 -3.390625 L 4.3125 -3.28125 L 4.265625 -3.171875 L 4.25 -3.0625 L 4.21875 -2.9375 L 4.21875 -2.828125 L 4.1875 -2.71875 L 4.15625 -2.671875 L 4.140625 -2.5 L 4.140625 -2.421875 L 4.125 -2.359375 L 4.109375 -2.234375 L 4.078125 -2.1875 L 3.984375 -1.875 L 4 -1.828125 L 3.953125 -1.71875 L 3.921875 -1.671875 L 3.921875 -1.5625 L 3.875 -1.46875 L 3.84375 -1.359375 L 3.84375 -1.296875 L 3.8125 -1.203125 L 3.78125 -1.140625 L 3.765625 -1.046875 L 3.703125 -0.9375 L 3.625 -0.765625 L 3.59375 -0.703125 L 3.515625 -0.59375 L 3.46875 -0.546875 L 3.421875 -0.484375 L 3.40625 -0.4375 L 3.203125 -0.234375 L 3.09375 -0.15625 L 3 -0.078125 L 2.953125 -0.046875 L 2.75 0.03125 L 2.6875 0.03125 L 2.4375 0.09375 L 2.34375 0.109375 Z M 2.078125 -1.0625 L 2.1875 -1.0625 L 2.3125 -1.09375 L 2.390625 -1.140625 L 2.515625 -1.21875 L 2.578125 -1.34375 L 2.625 -1.46875 L 2.65625 -1.53125 L 2.65625 -1.609375 L 2.671875 -1.734375 L 2.71875 -1.921875 L 2.734375 -2 L 2.75 -2.125 L 2.765625 -2.171875 L 2.828125 -2.421875 L 2.828125 -2.515625 L 2.859375 -2.59375 L 2.875 -2.734375 L 2.890625 -2.9375 L 2.921875 -3.015625 L 2.953125 -3.078125 L 2.96875 -3.25 L 3 -3.296875 L 2.984375 -3.453125 L 3.015625 -3.59375 L 3.03125 -3.6875 L 3.0625 -3.765625 L 3.078125 -3.828125 L 3.0625 -3.890625 L 3.078125 -4 L 3.09375 -4.078125 L 3.125 -4.203125 L 3.140625 -4.28125 L 3.140625 -4.390625 L 3.15625 -4.546875 L 3.15625 -4.671875 L 3.1875 -4.796875 L 3.140625 -4.96875 L 3.046875 -5.109375 L 2.90625 -5.171875 L 2.734375 -5.15625 L 2.671875 -5.140625 L 2.53125 -5.078125 L 2.4375 -5 L 2.375 -4.90625 L 2.34375 -4.796875 L 2.296875 -4.734375 L 2.25 -4.625 L 2.234375 -4.5625 L 2.21875 -4.484375 L 2.15625 -4.3125 L 2.15625 -4.21875 L 2.125 -4.09375 L 2.125 -4.046875 L 2.078125 -3.921875 L 2.0625 -3.796875 L 2.03125 -3.65625 L 2 -3.53125 L 1.984375 -3.390625 L 1.953125 -3.328125 L 1.921875 -3.1875 L 1.90625 -3.125 L 1.890625 -3 L 1.890625 -2.9375 L 1.875 -2.875 L 1.890625 -2.796875 L 1.859375 -2.734375 L 1.8125 -2.609375 L 1.828125 -2.546875 L 1.8125 -2.484375 L 1.8125 -2.4375 L 1.796875 -2.359375 L 1.796875 -2.296875 L 1.78125 -2.234375 L 1.78125 -2.15625 L 1.75 -2.03125 L 1.75 -1.96875 L 1.734375 -1.90625 L 1.75 -1.84375 L 1.75 -1.734375 L 1.703125 -1.640625 L 1.734375 -1.578125 L 1.734375 -1.34375 L 1.765625 -1.28125 L 1.78125 -1.234375 L 1.828125 -1.15625 L 1.875 -1.109375 L 1.953125 -1.09375 Z M 2.078125 -1.0625 "/></g></g><g style="fill:#000000;fill-opacity:1;"><g transform="translate(62.631769, 17.056453)"><path style="stroke:none" d="M 1.09375 0.03125 L 1.015625 0 L 0.953125 0 L 0.875 -0.078125 L 0.890625 -0.203125 L 0.90625 -0.390625 L 0.96875 -0.578125 L 0.984375 -0.640625 L 1 -0.765625 L 1.015625 -0.828125 L 1.015625 -1.015625 L 1.0625 -1.140625 L 1.078125 -1.203125 L 1.0625 -1.265625 L 1.109375 -1.453125 L 1.109375 -1.53125 L 1.140625 -1.625 L 1.15625 -1.765625 L 1.1875 -1.890625 L 1.203125 -2 L 1.21875 -2.0625 L 1.234375 -2.171875 L 1.28125 -2.265625 L 1.265625 -2.359375 L 1.265625 -2.421875 L 1.28125 -2.484375 L 1.328125 -2.609375 L 1.375 -2.796875 L 1.359375 -2.859375 L 1.40625 -2.96875 L 1.421875 -3.015625 L 1.421875 -3.140625 L 1.453125 -3.234375 L 1.453125 -3.3125 L 1.46875 -3.375 L 1.5 -3.421875 L 1.5 -3.484375 L 1.53125 -3.546875 L 1.546875 -3.671875 L 1.546875 -3.734375 L 1.578125 -3.84375 L 1.578125 -3.921875 L 1.609375 -3.96875 L 1.609375 -4.109375 L 1.625 -4.15625 L 1.671875 -4.3125 L 1.6875 -4.359375 L 1.6875 -4.53125 L 1.71875 -4.640625 L 1.734375 -4.703125 L 1.765625 -4.984375 L 0.859375 -4.984375 L 0.78125 -5.015625 L 0.75 -5.09375 L 0.765625 -5.203125 L 0.796875 -5.265625 L 0.796875 -5.34375 L 0.78125 -5.40625 L 0.828125 -5.53125 L 0.84375 -5.578125 L 0.84375 -5.703125 L 0.890625 -5.828125 L 0.90625 -5.875 L 0.90625 -6 L 0.921875 -6.046875 L 0.96875 -6.140625 L 1.046875 -6.203125 L 1.109375 -6.21875 L 1.34375 -6.21875 L 1.375 -6.203125 L 1.4375 -6.203125 L 1.5 -6.21875 L 2.15625 -6.21875 L 2.21875 -6.203125 L 2.421875 -6.203125 L 2.984375 -6.21875 L 3.125 -6.203125 L 3.296875 -6.21875 L 3.390625 -6.203125 L 4.0625 -6.203125 L 4.140625 -6.1875 L 4.15625 -6.109375 L 4.15625 -6.0625 L 4.140625 -6 L 4.125 -5.921875 L 4.125 -5.8125 L 4.109375 -5.75 L 4.109375 -5.703125 L 4.078125 -5.59375 L 4.0625 -5.53125 L 4.0625 -5.46875 L 4.046875 -5.375 L 4 -5.1875 L 3.984375 -5.0625 L 3.953125 -4.984375 L 3.0625 -4.984375 L 3.03125 -4.921875 L 3.046875 -4.859375 L 3.015625 -4.796875 L 3.015625 -4.75 L 3 -4.703125 L 2.984375 -4.578125 L 2.984375 -4.515625 L 2.9375 -4.359375 L 2.90625 -4.28125 L 2.921875 -4.25 L 2.875 -4.125 L 2.84375 -4 L 2.84375 -3.953125 L 2.828125 -3.84375 L 2.828125 -3.734375 L 2.78125 -3.625 L 2.765625 -3.484375 L 2.71875 -3.296875 L 2.6875 -3.25 L 2.6875 -3.078125 L 2.65625 -2.96875 L 2.625 -2.90625 L 2.609375 -2.78125 L 2.59375 -2.734375 L 2.59375 -2.671875 L 2.5625 -2.546875 L 2.546875 -2.421875 L 2.53125 -2.34375 L 2.53125 -2.25 L 2.515625 -2.203125 L 2.484375 -2.078125 L 2.453125 -1.96875 L 2.4375 -1.90625 L 2.4375 -1.796875 L 2.421875 -1.671875 L 2.390625 -1.53125 L 2.359375 -1.421875 L 2.34375 -1.359375 L 2.328125 -1.234375 L 2.234375 -0.859375 L 2.234375 -0.78125 L 2.203125 -0.59375 L 2.140625 -0.34375 L 2.125 -0.21875 L 2.09375 -0.09375 L 2.078125 -0.046875 L 1.96875 0 L 1.203125 0 Z M 1.09375 0.03125 "/></g></g></g></svg>